<?xml version="1.0" encoding="UTF-8"?>
<svg width="198px" height="44px" viewBox="0 0 198 44" version="1.1" xmlns="http://www.w3.org/2000/svg" xmlns:xlink="http://www.w3.org/1999/xlink">
    <!-- Generator: Sketch 48.2 (47327) - http://www.bohemiancoding.com/sketch -->
    <title>Artboard 6</title>
    <desc>Created with Sketch.</desc>
    <defs></defs>
    <g id="Libra-Clips" stroke="none" stroke-width="1" fill="none" fill-rule="evenodd">
        <g id="Artboard-6">
            <g id="Group-6-Copy-2" transform="translate(0.000000, -1.000000)">
                <path d="M27.9518056,20.6313044 C27.4100881,24.490151 25.9185572,27.5204679 23.4846327,29.7088809 C21.049262,31.9026686 17.9715017,33 14.242297,33 C9.89862186,33 6.44018163,31.5098718 3.86685058,28.5380525 C1.286414,25.5655457 0,21.5615799 0,16.5187805 C0,11.4828558 1.33753604,7.47145284 4.01317404,4.48388416 C6.68900069,1.49750294 10.2870361,0 14.7984142,0 C18.3582811,0 21.2760099,0.909151341 23.5648056,2.72520411 C25.8453011,4.54288182 27.2201254,7.04984461 27.6740614,10.2394053 L23.5578888,10.2394053 C23.1557665,8.16842512 22.1898556,6.57061367 20.6541195,5.44372099 C19.119075,4.31770327 17.145186,3.75041334 14.7395579,3.75041334 C11.5801784,3.75041334 9.06551505,4.9054924 7.20091272,7.20908827 C5.32933063,9.51287165 4.39391687,12.6159357 4.39391687,16.5187805 C4.39391687,20.668303 5.26443772,23.8214276 6.99648747,25.9947786 C8.72897738,28.1672547 11.2445839,29.2500866 14.5421124,29.2500866 C16.9842113,29.2500866 19.0092853,28.5017414 20.6250686,27.0054884 C22.2340607,25.507798 23.3090697,23.3861324 23.8355701,20.6313044 L27.9518056,20.6313044 Z M29.8800433,32.1499713 L41.7684001,0.850716165 L44.1891825,0.850716165 L46.6300239,0.850716165 L57.9416386,32.1499713 L55.6542263,32.1499713 L53.3653676,32.1499713 L50.1548033,23.0805195 L37.5858883,23.0805195 L34.2739601,32.1499713 L32.0879744,32.1499713 L29.8800433,32.1499713 Z M38.9385785,19.3306062 L48.8456264,19.3306062 L43.9916741,5.45059571 L38.9385785,19.3306062 Z M61.8808021,32.1499713 L61.8808021,0.850716165 L64.0012032,0.850716165 L76.5328928,0.850716165 C79.8744378,0.850716165 82.4121154,1.57031254 84.1592566,3.00881783 C85.8996695,4.45501031 86.7700017,6.5623015 86.7700017,9.34525331 C86.7700017,12.0857068 85.8636388,14.2288091 84.0501585,15.7697478 C83.5886768,16.1548575 83.0994018,16.4967814 82.5730901,16.794957 L83.2749648,17.1368809 C85.1907521,18.2258376 86.1843305,20.064077 86.2573979,22.6519741 L86.4259812,28.3568097 C86.4550321,29.2940224 86.579473,29.969683 86.7921357,30.3762294 C87.0035407,30.7909629 87.4202513,31.1474487 88.0350362,31.4453743 L88.0350362,32.1278472 L82.7921037,32.1278472 C82.6753971,31.8737948 82.5654187,31.2050089 82.4486491,30.1291142 C82.3388594,29.0468447 82.2511408,27.8473299 82.1923473,26.52482 L82.0969572,24.0549183 C82.0390441,22.1137455 81.5636657,20.7259257 80.6642198,19.8895214 C79.7653397,19.0614919 78.2951882,18.6481958 76.2550229,18.6481958 L66.1435497,18.6481958 L66.1435497,32.1499713 L64.0233372,32.1499713 L61.8808021,32.1499713 Z M66.1435497,14.9854665 L76.6792163,14.9854665 C78.6461884,14.9854665 80.0942059,14.5571085 81.0082402,13.6987677 C81.9215829,12.8411143 82.3753931,11.4828558 82.3753931,9.62142983 C82.3753931,7.82025147 81.892532,6.49780406 80.9280673,5.66139983 C79.9698278,4.82574557 78.4417003,4.40413734 76.3573298,4.40413734 L66.1435497,4.40413734 L66.1435497,14.9854665 Z M92.7709614,32.1499713 L92.7709614,0.850716165 L94.8904822,0.850716165 L105.712256,0.850716165 C109.710968,0.850716165 112.892481,2.2679723 115.253841,5.10179709 C117.615264,7.92868465 118.8,11.7369082 118.8,16.5187805 C118.8,21.2924656 117.586213,25.0863147 115.165997,27.9132023 C112.745969,30.7401524 109.477491,32.1499713 105.368927,32.1499713 L94.8904822,32.1499713 L92.7709614,32.1499713 Z M97.0329545,28.5304278 L104.827964,28.5304278 C107.883591,28.5304278 110.245705,27.4846569 111.912862,25.3986148 C113.572976,23.3133228 114.406146,20.3551279 114.406146,16.5187805 C114.406146,12.6735584 113.608818,9.70242661 112.006743,7.60875988 C110.405988,5.51653059 108.139955,4.47000972 105.192673,4.47000972 L97.0329545,4.47000972 L97.0329545,28.5304278 Z" id="Fill-1" fill="#D9262E"></path>
                <path d="M136.632489,20.5915123 L135.798187,19.7380227 C137.089354,18.2045652 138.372166,17.0621842 139.647622,16.3315902 C140.924449,15.5935951 142.02671,15.226028 142.960889,15.226028 C143.315757,15.226028 143.591821,15.318946 143.794505,15.4925919 C144.004795,15.6743852 144.106978,15.927142 144.106978,16.2660376 C144.106978,16.6787576 144.06315,17.0983189 143.968572,17.5254679 C143.874743,17.9586498 143.591821,18.9781975 143.106153,20.5915123 C145.274265,18.4288371 146.753091,17.0914154 147.550297,16.5844091 C148.87644,15.7247624 150.094974,15.2902123 151.196487,15.2902123 C151.921997,15.2902123 152.530111,15.6306628 153.023323,16.30976 C153.523455,16.989728 153.769967,18.0092758 153.769967,19.384014 C153.769967,22.7966038 152.704178,26.0512828 150.564869,29.1248526 C148.427056,32.2058235 146.056447,33.7461845 143.468627,33.7461845 C142.445918,33.7461845 141.431315,33.4714732 140.409479,32.9219884 L138.604402,39.9144701 C138.495547,40.3340937 138.437379,40.6811989 138.437379,40.9490067 C138.437379,41.4697578 138.633205,41.8454723 139.031902,42.0697442 C139.640889,42.4242505 140.924449,42.714075 142.874666,42.9450638 L142.599287,44 C140.321634,43.8196371 138.52435,43.7253509 137.227697,43.7253509 C135.878924,43.7253509 134.13906,43.8196371 132,44 L132.275316,42.9450638 C133.356193,42.8288853 134.131454,42.5323438 134.62398,42.0485982 C135.110334,41.5708232 135.500739,40.71808 135.798187,39.4880053 L139.647622,23.4046754 C140.365463,20.4111494 140.728686,18.7472087 140.728686,18.407007 C140.728686,18.0392533 140.554556,17.85746 140.19975,17.85746 C139.576424,17.85746 138.386693,18.769101 136.632489,20.5915123 Z M140.924449,30.585854 C142.040301,31.7064049 143.185705,32.2632908 144.360411,32.2632908 C146.063866,32.2632908 147.550297,30.9396762 148.833297,28.3001589 C150.115673,25.6603929 150.753962,23.0794003 150.753962,20.5696199 C150.753962,19.7599151 150.573223,19.152341 150.210188,18.7322821 C149.848462,18.3207438 149.369714,18.110279 148.760665,18.110279 C148.079233,18.110279 147.310643,18.4438259 146.462563,19.1086185 C145.150885,20.1364381 144.142453,21.1627028 143.447243,22.175347 C142.954156,22.9127823 142.482827,24.1857088 142.047907,25.9938154 L140.924449,30.585854 Z M163.902976,28.0471534 L164.620131,28.8071652 C163.51787,30.0507982 162.213798,31.1857782 160.70617,32.212727 C159.197793,33.2322748 157.950455,33.7461845 156.97226,33.7461845 C156.537341,33.7461845 156.174867,33.57938 155.892132,33.2472635 C155.609895,32.913841 155.464631,32.458829 155.464631,31.8800508 C155.464631,30.7524719 155.907157,28.4094339 156.783916,24.8513722 L159.074412,15.5430313 C159.915634,12.1880332 160.611592,9.93163158 161.184169,8.78850418 C162.061614,7.0535378 163.301533,5.70187362 164.910472,4.73979322 C166.512679,3.77702868 168.208714,3.3 169.991721,3.3 C170.601394,3.3 171.079456,3.44491223 171.427404,3.73455012 C171.775414,4.02300631 171.94998,4.37769922 171.94998,4.78283153 C171.94998,5.23858983 171.775414,5.60752518 171.441743,5.89598138 C171.101339,6.18561926 170.601394,6.33053149 169.949264,6.33053149 C169.528684,6.33053149 168.926556,6.25807538 168.14294,6.12006669 C167.468928,6.00525639 166.838744,5.94660737 166.25856,5.94660737 C165.679063,5.94660737 165.236537,6.0694407 164.939276,6.30870137 C164.52624,6.64896524 164.156346,7.36438387 163.823424,8.44948419 C163.489254,9.53390036 162.953585,11.6817111 162.199334,14.8926677 L160.096435,23.7655877 C159.053214,28.2138957 158.523032,30.5421315 158.523032,30.7374832 C158.523032,31.1924951 158.690241,31.4174512 159.016992,31.4174512 C159.328593,31.4174512 159.778662,31.2295006 160.37175,30.86722 C161.546457,30.1306554 162.720664,29.189721 163.902976,28.0471534 Z M179.458199,15.9053119 L182.473518,15.9053119 L180.479536,23.3036722 C179.305328,27.5921414 178.718412,30.036307 178.718412,30.6295764 C178.718412,30.8959537 178.77658,31.1064185 178.906819,31.2430589 C179.037619,31.3879712 179.175277,31.4604273 179.33488,31.4604273 C179.573973,31.4604273 179.85621,31.3523962 180.183521,31.1420557 C180.646496,30.8167806 181.531547,29.9925845 182.836492,28.684083 L183.53937,29.4651164 C180.690324,32.4151066 178.595093,33.8977515 177.253926,33.8977515 C176.797622,33.8977515 176.413389,33.7242922 176.094245,33.377187 C175.775038,33.0300196 175.615996,32.5380021 175.615996,31.901881 C175.615996,31.1706028 175.76818,30.1881228 176.07922,28.9587944 C174.82571,30.3972193 173.267332,31.6633666 171.411007,32.7484669 C170.178694,33.4714732 169.112843,33.832199 168.206595,33.832199 C167.706649,33.832199 167.314811,33.6668249 167.032574,33.3415498 C166.750338,33.0150308 166.611994,32.5025515 166.611994,31.7931035 C166.611994,31.2430589 166.677706,30.6514065 166.801087,30.0144769 C166.988746,29.1248526 167.453217,27.3393224 168.206595,24.6558961 C169.149252,21.2489038 169.628,19.2105547 169.628,18.5381743 C169.628,18.1404431 169.482736,17.9368197 169.2005,17.9368197 C168.946381,17.9368197 168.598371,18.0748284 168.162766,18.3345509 C167.721675,18.5954551 166.974968,19.224113 165.908617,20.2293561 L164.974251,19.4852038 C166.873719,17.7932757 168.323055,16.6787576 169.316275,16.1512273 C170.317038,15.6237592 171.121165,15.3557649 171.730152,15.3557649 C172.071242,15.3557649 172.346744,15.478847 172.556349,15.7247624 C172.7672,15.977768 172.875493,16.3603238 172.875493,16.8816347 C172.875493,17.85746 172.36869,20.2512484 171.345919,24.0628133 C170.440419,27.497793 169.990973,29.4501277 169.990973,29.9353038 C169.990973,30.2318452 170.084117,30.4846642 170.273209,30.6937607 C170.469222,30.9042255 170.671906,31.0121323 170.903456,31.0121323 C171.693929,31.0121323 172.817886,30.3615821 174.274828,29.0523965 C175.739377,27.743895 176.688705,26.2603793 177.14557,24.5902814 L179.458199,15.9053119 Z M194.04888,15.3120424 C195.311431,15.3120424 196.282705,15.5582066 196.971057,16.0419523 C197.65199,16.5339697 198,17.0914154 198,17.7277231 C198,18.110279 197.854674,18.4438259 197.565579,18.7253786 C197.275238,19.0076153 196.919622,19.1449399 196.514254,19.1449399 C196.245609,19.1449399 196.005955,19.0874726 195.811376,18.971294 C195.615425,18.8482741 195.331942,18.5450157 194.963483,18.067987 C194.266839,17.1496291 193.577739,16.6938707 192.903726,16.6938707 C192.324228,16.6938707 191.809071,16.9103684 191.359688,17.3587256 C190.917848,17.8001792 190.693219,18.356381 190.693219,19.02192 C190.693219,19.6006982 190.838483,20.1650474 191.120719,20.7076908 C191.402768,21.2489038 192.113938,22.1316245 193.266699,23.3473946 C194.83181,25.0099049 195.622283,26.5937396 195.622283,28.0910624 C195.622283,29.5881986 194.98468,30.8959537 193.709224,32.0173754 C192.432397,33.1461981 190.794654,33.7024621 188.778726,33.7024621 C187.09703,33.7024621 185.84352,33.3621982 185.024367,32.6760108 C184.204343,31.9886417 183.792055,31.150141 183.792055,30.1444003 C183.792055,29.653067 183.944052,29.240347 184.255092,28.9150719 C184.567378,28.5897968 184.951735,28.4313263 185.407852,28.4313263 C185.799691,28.4313263 186.140781,28.5610631 186.423017,28.8207235 C186.705253,29.0818143 186.850517,29.3852592 186.850517,29.7397656 C186.850517,29.8846778 186.835991,30.0650407 186.807374,30.289126 C186.79291,30.4777606 186.785429,30.6295764 186.785429,30.7593133 C186.785429,31.2226593 186.981255,31.6196442 187.379952,31.9456034 C187.76487,32.2708785 188.285514,32.4300954 188.952669,32.4300954 C189.714339,32.4300954 190.389099,32.3001719 190.968597,32.0392677 C191.548032,31.778861 192.004897,31.3811298 192.330962,30.8536617 C192.657026,30.3261315 192.817316,29.7972329 192.817316,29.2764818 C192.817316,28.7701597 192.665318,28.2576182 192.360451,27.7506119 C192.055583,27.244974 191.374152,26.398388 190.3083,25.2270867 C188.83758,23.5919418 188.104713,22.0161301 188.104713,20.5040674 C188.104713,19.1231098 188.663512,17.908086 189.779365,16.8742336 C190.895903,15.8328557 192.324228,15.3120424 194.04888,15.3120424 Z" id="Fill-2" fill="#D8232A"></path>
            </g>
        </g>
    </g>
</svg>