<?xml version="1.0" encoding="UTF-8"?>
<svg width="271px" height="47px" viewBox="0 0 271 47" version="1.1" xmlns="http://www.w3.org/2000/svg" xmlns:xlink="http://www.w3.org/1999/xlink">
    <!-- Generator: Sketch 48.2 (47327) - http://www.bohemiancoding.com/sketch -->
    <title>Artboard 2</title>
    <desc>Created with Sketch.</desc>
    <defs></defs>
    <g id="Libra-Clips" stroke="none" stroke-width="1" fill="none" fill-rule="evenodd">
        <g id="Artboard-2">
            <g id="Libraclips-Logo-Copy">
                <path d="M224.87678,1 L254.12322,1 C255.15609,1 256,1.84158182 256,2.87176276 L256,39.1278017 C256,40.1581278 255.15609,41 254.12322,41 L224.87678,41 C223.84391,41 223,40.1581278 223,39.1278017 L223,2.87176276 C223,1.84158182 223.84391,1 224.87678,1" id="Fill-1" fill="#29317C"></path>
                <path d="M8.17784258,35.3047198 L10.4407243,36.0915724 C10.3246865,36.7506999 10.2134293,37.2793877 10.1062283,37.6748499 C9.99946199,38.0727409 9.84872876,38.541495 9.65250756,39.0781121 L10.7433497,40.253212 C10.8782201,40.3867948 11.0486551,40.5468084 11.2589283,40.7343243 L9.7163211,43.5685654 C9.43151424,43.3326882 9.1346835,43.0576648 8.83039215,42.7452811 C8.52298618,42.4285398 8.24788536,42.1612314 8.00393077,41.9405698 C7.50522904,42.4644 7.00507866,42.8497185 6.50485584,43.0893103 C5.81130915,43.4221958 5.02120917,43.5912816 4.13607699,43.5957105 C2.7481144,43.6024254 1.71326306,43.1516728 1.03246458,42.2430955 C0.352028277,41.3346611 0.00688467403,40.2290671 7.59649679e-05,38.9266706 C-0.00441488569,37.9925912 0.190212787,37.1064444 0.58316222,36.2681589 C0.977198148,35.4320878 1.62496714,34.7243133 2.52632433,34.1451926 C2.14467445,33.4182737 1.8795694,32.7915775 1.73607948,32.2566035 C1.59070629,31.7203436 1.51696942,31.1770831 1.51436183,30.624679 C1.50856719,29.4567225 1.7849718,28.4944978 2.34364811,27.7363619 C2.90456984,26.9747972 3.75623794,26.5944791 4.90256379,26.5890501 C6.07351688,26.5833353 6.93336992,26.9407229 7.48712078,27.6537121 C8.03840891,28.3717731 8.31604489,29.229346 8.32075304,30.2320742 C8.32401253,30.791336 8.24440858,31.3330249 8.07723304,31.8497831 C7.91215806,32.3673272 7.7129671,32.78672 7.47850124,33.1092474 C7.24135535,33.4322749 6.82008459,33.9136015 6.21454408,34.5522272 C6.72251723,35.3496522 7.25490034,36.0915724 7.80828903,36.7774164 C7.95243085,36.3130912 8.07578438,35.8220495 8.17784258,35.3047198 Z M4.83954701,32.4354044 C5.21134599,32.1132341 5.4973842,31.7622757 5.70041411,31.3818148 C5.90083643,31.0059971 6.00144597,30.6449664 5.99978001,30.308795 C5.99818648,29.9594795 5.91112193,29.6614542 5.7411215,29.4217195 C5.57003458,29.1772702 5.33433735,29.0551884 5.03620281,29.0566171 C4.74277643,29.0580458 4.50381971,29.1979148 4.32085376,29.4650089 C4.13730835,29.7353176 4.04698431,30.0542733 4.04865027,30.4203759 C4.05089569,30.8852726 4.31433479,31.5574011 4.83954701,32.4354044 Z M3.82910562,36.4362446 C3.43405562,36.8798537 3.17192032,37.2593146 3.04523488,37.5750557 C2.91521751,37.8897253 2.85176613,38.2228251 2.8529975,38.5755694 C2.85611212,39.1192584 3.00930807,39.6055855 3.30947073,40.0320503 C3.6094161,40.4566579 3.99896118,40.6701046 4.47571568,40.6676758 C4.99187377,40.6650327 5.56981728,40.3440769 6.21106729,39.7050225 C5.5921991,38.9570304 4.79949152,37.8692236 3.82910562,36.4362446 Z M26.3279052,26.715418 L29.8186,26.6983451 L36.575954,43.1692457 L32.9113474,43.1873186 L31.4527626,39.2636279 L24.6465163,39.296845 L23.2694186,43.2340369 L19.808349,43.2508955 L26.3279052,26.715418 Z M27.9588084,29.9943397 L25.6924499,36.3497372 L30.3606167,36.3270924 L27.9588084,29.9943397 Z M40.4745919,43.1502441 L37.3181757,43.1656025 L37.2354572,26.6619134 L40.3918733,26.6467693 L40.4745919,43.1502441 Z M46.1897788,43.1223131 L43.0333627,43.1378859 L42.950789,26.6341968 L46.1072051,26.6187669 L46.1897788,43.1223131 Z M51.9781955,43.0941679 L48.7936754,43.1095263 L48.7330489,30.9970678 L51.9176415,30.9812807 L51.9781955,43.0941679 Z M51.9103982,29.6013062 L48.7260953,29.616879 L48.7108844,26.6062658 L51.8952597,26.5906217 L51.9103982,29.6013062 Z M59.7149172,43.0563075 C59.2974854,43.0583077 58.8934537,43.0370202 58.4994177,42.9935165 C58.1066132,42.9487269 57.7218487,42.8742206 57.3420096,42.7685688 C56.9543478,42.6626312 56.592617,42.5046892 56.2564551,42.2922425 C55.9213797,42.0786529 55.6115835,41.8038439 55.3298912,41.4693154 C55.0859366,41.2099362 54.8773294,40.9234119 54.7068943,40.6101709 C54.5353004,40.2971443 54.3956494,39.9716881 54.2868549,39.6361595 C54.1784226,39.2826295 54.0954868,38.9347428 54.0352949,38.5913564 C53.9751754,38.2454699 53.9343232,37.889511 53.9131727,37.5224084 C53.9129554,37.4911914 53.9127381,37.4571885 53.9123035,37.4191139 C53.9123035,37.3803963 53.9120862,37.338107 53.9120862,37.2925317 C53.9119414,37.2616005 53.9119414,37.2273118 53.9117241,37.1884514 C53.9110722,37.150591 53.9108549,37.1086589 53.91071,37.0619406 C53.91071,37.030938 53.9104927,37.0042214 53.9104927,36.9811481 C53.9102754,36.9588604 53.9100581,36.9321439 53.9100581,36.9009269 C53.9098408,36.8857114 53.9098408,36.8622808 53.9094786,36.8332783 C53.9094786,36.80249 53.9094786,36.7792023 53.9092613,36.7648439 C53.909044,36.7180543 53.9086094,36.66805 53.9083921,36.6150455 C53.9082473,36.5607552 53.9135349,36.503036 53.9221544,36.4416736 C53.9396108,36.0889293 53.9796663,35.7481146 54.0410895,35.4183009 C54.102223,35.08863 54.1847967,34.7555302 54.2903317,34.4175729 C54.39507,34.0789727 54.5299403,33.7608742 54.6935667,33.4616345 C54.8561789,33.1613232 55.0529071,32.8818709 55.2854898,32.6202772 C55.5641398,32.2804626 55.8708939,32.0048678 56.2039411,31.7879922 C56.5380025,31.5711166 56.8981397,31.4087456 57.2847151,31.299022 C57.6631779,31.1896556 58.0475078,31.1078629 58.4396604,31.0527868 C58.8328996,30.9977107 59.236714,30.9687082 59.6539285,30.9667081 L64.0892954,30.9219185 L64.1020437,33.4502764 L60.0882372,33.4697066 C59.6611718,33.4874938 59.2790149,33.5312833 58.94068,33.6017178 C58.6012586,33.6722238 58.3062387,33.7702322 58.0546786,33.8935284 C57.7931228,34.0168246 57.59864,34.2361289 57.4682605,34.5505842 C57.3395469,34.8664682 57.2708079,35.2761459 57.2644338,35.782189 L64.1133432,35.7264699 L64.1258741,38.253542 L57.2769647,38.2869734 C57.2886264,38.8071605 57.3588865,39.2294107 57.4868033,39.5505094 C57.6142856,39.8714653 57.8000764,40.0928412 58.0425823,40.2147087 C58.285885,40.3210035 58.5766314,40.4038677 58.9164149,40.4631584 C59.2551844,40.5227349 59.6482063,40.5518803 60.0945389,40.5494515 L64.137391,40.5067336 L64.1497046,43.03502 L59.7149172,43.0563075 Z M76.7297362,42.973229 L70.8988013,43.0020172 C70.045105,43.006089 69.2817329,42.8831499 68.6055701,42.6334858 C67.9307111,42.3850361 67.3494357,42.0073612 66.8619611,41.5049613 C66.3849893,41.0015614 66.012973,40.3977957 65.7472885,39.6935216 C65.4828354,38.9902475 65.3234826,38.1944655 65.2707513,37.3063186 C65.2485868,36.9067846 65.2567717,36.5095365 65.2943645,36.1102169 C65.3302913,35.7128974 65.3970022,35.320864 65.4918895,34.9365456 C65.5772881,34.5390833 65.7027422,34.1624084 65.8707145,33.8096641 C66.0386144,33.4563483 66.2431654,33.1169623 66.4843675,32.7952207 C66.782502,32.394258 67.1005557,32.0676588 67.4387457,31.8133515 C67.7775152,31.5584012 68.1395357,31.3771715 68.5273424,31.2675908 C68.9236237,31.1424373 69.3307701,31.0529297 69.74755,30.9977107 C70.1633883,30.942206 70.5951618,30.9134178 71.0421463,30.9114176 L73.6296006,30.8755574 L73.6080156,26.4847555 L76.647235,26.4701828 L76.7297362,42.973229 Z M73.6776238,40.3912952 L73.6431456,33.4958517 C73.6035247,33.4962089 73.5655698,33.4994949 73.5263111,33.507567 C73.4877042,33.5152819 73.4499666,33.5201395 73.4103457,33.5203538 C73.3910061,33.5203538 73.372101,33.5204966 73.3520371,33.5204966 C73.3329148,33.5207109 73.3136476,33.5207109 73.2943079,33.5209252 C73.2261484,33.5209252 73.1684917,33.5213539 73.1189474,33.5215682 C73.0704897,33.5219253 73.0222493,33.5221396 72.9737916,33.5223539 C72.8972298,33.5227825 72.8218994,33.5229254 72.748742,33.523354 C72.6758743,33.5237826 72.6060488,33.5241398 72.5375272,33.5245684 C72.4598789,33.5247827 72.3843312,33.524997 72.3126949,33.5255685 C72.2404067,33.5259971 72.1695671,33.5262114 72.1022044,33.52664 C72.0336103,33.5269972 71.9683481,33.5269972 71.9053313,33.5276401 C71.8423145,33.5278544 71.7761831,33.5282116 71.7082409,33.5284259 C71.6412403,33.5432129 71.5759781,33.5514993 71.5131786,33.5517136 C71.4497272,33.5519279 71.3846099,33.5521422 71.3160158,33.5524994 C71.2485081,33.5531423 71.1821595,33.5533566 71.1191427,33.5537138 C71.0573573,33.5537138 70.9965859,33.5618573 70.93806,33.5778587 C70.8706972,33.578073 70.805435,33.5827162 70.7415491,33.5895739 C70.6785323,33.5978604 70.6134149,33.6027179 70.5459073,33.6031465 C70.4303041,33.6189336 70.3152804,33.6417927 70.2042405,33.6732239 C70.092766,33.7050123 69.9841164,33.7509448 69.8787987,33.8135216 C69.7720323,33.8750982 69.6724369,33.9433183 69.5806642,34.0202534 C69.4886742,34.0974028 69.3987123,34.1744094 69.3129515,34.2523446 C69.1583069,34.4064291 69.0289414,34.579801 68.922827,34.771103 C68.8168574,34.9624764 68.7302274,35.1659937 68.6647479,35.3814406 C68.6362093,35.4893783 68.6072361,35.5971018 68.5789147,35.7046109 C68.5503761,35.8113343 68.5316884,35.9101284 68.5216202,36.0022791 C68.5029324,36.1100026 68.4869247,36.2175117 68.4727278,36.3254494 C68.4587483,36.4319585 68.4513601,36.5396819 68.452012,36.6471911 C68.4524466,36.7081248 68.4524466,36.7703444 68.4525914,36.8304924 C68.4532433,36.8912118 68.4536779,36.9455022 68.4536779,36.991006 C68.4538228,37.0520112 68.4544747,37.1098733 68.4544747,37.1641636 C68.454692,37.2174539 68.454692,37.2672438 68.4550542,37.3140335 C68.4797539,38.1246024 68.600862,38.7642283 68.8215655,39.2311965 C69.0416896,39.6960932 69.3609746,39.9907611 69.7786238,40.1108428 C70.1964177,40.2317102 70.6549191,40.3220036 71.1534035,40.3801514 C71.6542058,40.440085 72.1997717,40.4595153 72.7902462,40.4410851 C72.8195815,40.4408708 72.8543494,40.4408708 72.8925217,40.4406565 C72.9321425,40.4405136 72.9649547,40.4333702 72.9937107,40.4180117 C73.0321002,40.4177974 73.0715762,40.4175831 73.1107625,40.417226 C73.1493693,40.4170117 73.1885556,40.4170117 73.226583,40.4167973 C73.2662039,40.416583 73.3041588,40.416583 73.3435624,40.4163687 C73.3821692,40.4161544 73.4209934,40.4160116 73.4596002,40.4157973 C73.4889356,40.4153687 73.522617,40.4151543 73.5606443,40.41494 C73.6004825,40.41494 73.6384375,40.41494 73.6776238,40.4147972 L73.6776238,40.3912952 Z M94.491123,29.2562769 C93.8802949,29.2748499 93.3512437,29.3694294 92.9001305,29.5401582 C92.4506833,29.7110298 92.0806952,29.9657658 91.7911802,30.3033659 C91.492611,30.6431091 91.2593765,31.0456433 91.0918388,31.5146118 C90.9255325,31.9817944 90.8281824,32.5234833 90.8021065,33.1359639 L99.9207063,33.0681725 L99.9352654,35.9413454 L90.7871129,35.9858491 C90.7887788,36.2776597 90.8023238,36.5649698 90.8283997,36.8474938 C90.8536789,37.1318037 90.9009052,37.4031125 90.9710929,37.6622774 C91.0388902,37.9383009 91.1378338,38.1984659 91.2651712,38.4441296 C91.3922188,38.6875074 91.5542516,38.9165269 91.7488792,39.1305451 C91.9139542,39.3296335 92.0948196,39.4972906 92.2890851,39.6325164 C92.482916,39.7702424 92.6974628,39.8615358 92.9302627,39.9058968 C93.1535014,39.9514721 93.3840559,39.9844749 93.6214191,40.0069768 C93.8587823,40.0276214 94.0987531,40.0387652 94.3414763,40.0377651 C94.3517618,40.0377651 94.3562526,40.0377651 94.3562526,40.0377651 C94.3562526,40.0377651 94.3609608,40.0377651 94.3706668,40.0377651 C94.3810972,40.0375508 94.389934,40.0375508 94.4002195,40.0375508 C94.4102877,40.0375508 94.4191246,40.0373365 94.4293376,40.0373365 C94.4381745,40.0373365 94.4484599,40.0373365 94.4585281,40.0369079 C94.4677271,40.0369079 94.4780126,40.0369079 94.4878635,40.0369079 C94.497135,40.0369079 94.5069859,40.0366936 94.5159676,40.0366936 C94.5258909,40.0366936 94.536104,40.0366936 94.5451581,40.0365507 L99.9556191,39.9869036 L99.9697435,42.8602908 L94.3997849,42.8872217 C93.9544664,42.8896505 93.5166809,42.872649 93.0902674,42.8360031 C92.6637814,42.8003572 92.2416414,42.7367803 91.8238475,42.6470584 C91.4069951,42.5723378 91.0096997,42.4356119 90.6292812,42.2390237 C90.2504562,42.0424356 89.8756875,41.7899141 89.5063512,41.4857454 C89.0682036,41.1206429 88.6951008,40.7086079 88.3877673,40.2507832 C88.0795645,39.7918871 87.8372759,39.2949877 87.6601046,38.7587992 C87.4824987,38.2240395 87.3469764,37.6767072 87.2515096,37.1180168 C87.1568396,36.5593265 87.0985309,35.9962072 87.0753524,35.4304448 C87.0753524,35.3682966 87.0728896,35.3072914 87.0679642,35.2463577 C87.0630387,35.1842095 87.0593447,35.1232758 87.0591274,35.0622706 C87.0591274,35.0155523 87.0589101,34.9624764 87.0582582,34.9003283 C87.057896,34.8391802 87.057896,34.7793894 87.0576787,34.7184557 C87.0566646,34.5953738 87.0618074,34.4765065 87.0704269,34.3610681 C87.0796259,34.2456297 87.0894768,34.1346917 87.0980964,34.0269683 C87.1689359,32.7253576 87.3691409,31.5940471 87.6997255,30.6352513 C88.0288614,29.6748125 88.4883768,28.8873169 89.0768231,28.2706931 C89.6652694,27.6557837 90.4032176,27.1916728 91.295086,26.8822179 C92.1841296,26.57062 93.2218783,26.4124636 94.405145,26.406606 L99.887025,26.3567446 L99.9018013,29.2299175 L94.491123,29.2562769 Z M102.484113,30.7348312 L108.198068,30.7071146 C108.944998,30.7188298 109.61457,30.800051 110.207362,30.9490637 C110.799502,31.0991479 111.309069,31.3275244 111.738235,31.6326933 C112.156029,31.9358619 112.473069,32.3835428 112.689643,32.9713785 C112.906291,33.5618573 113.015954,34.2847045 113.019866,35.1418488 L113.0584,42.7962854 L110.019036,42.8112867 L109.982312,35.5251671 C109.980212,35.1111319 109.9474,34.7620308 109.882934,34.4795068 C109.818251,34.1968399 109.718656,33.9779641 109.58154,33.8254511 C109.454855,33.6895824 109.255012,33.5829305 108.983822,33.5077813 C108.712198,33.4324177 108.37256,33.3952003 107.965196,33.3974147 L105.521884,33.3858423 L105.56911,42.8329314 L102.544522,42.8477183 L102.484113,30.7348312 Z M114.437381,30.6765405 L116.574809,30.6661825 L116.552427,26.2755949 L119.578463,26.2608079 L119.600628,30.6516098 L122.813904,30.6356085 L122.826,33.0485279 L119.61229,33.064315 L119.636989,37.9608028 C119.629963,38.5732834 119.693197,39.0554673 119.82546,39.4075687 C119.958665,39.7585271 120.160101,39.9806174 120.432812,40.0713394 C120.693933,40.1776342 121.013218,40.2525691 121.386683,40.2962871 C121.760582,40.3410766 122.184388,40.3612926 122.659115,40.3590782 C122.669328,40.3590782 122.673891,40.3588638 122.673891,40.3588638 C122.673891,40.3588638 122.678164,40.3588638 122.68845,40.3588638 C122.698518,40.3588638 122.707717,40.3588638 122.717641,40.3585067 C122.72684,40.3585067 122.736908,40.3585067 122.746976,40.3585067 C122.75603,40.3585067 122.766098,40.3582924 122.776094,40.3582924 C122.784931,40.3582924 122.795216,40.3582924 122.80427,40.3580781 C122.814484,40.3580781 122.824769,40.3580781 122.833823,40.3580781 C122.843891,40.3578638 122.853742,40.3578638 122.862796,40.3578638 L122.874458,42.7487099 L120.09665,42.7620682 C119.52508,42.7649256 119.020584,42.6829186 118.583668,42.5166188 C118.146099,42.3499617 117.786179,42.0999405 117.503256,41.7629832 C117.200993,41.4272404 116.97884,41.030921 116.83593,40.5715248 C116.692657,40.1128429 116.619572,39.5907985 116.616458,39.0094634 L116.586688,33.079102 L114.449695,33.08946 L114.437381,30.6765405 Z M129.782545,42.714707 C129.366128,42.7169215 128.961227,42.6954197 128.568277,42.651916 C128.17569,42.6073408 127.78926,42.5324058 127.410435,42.4269683 C127.022193,42.3210307 126.66039,42.1630887 126.325097,41.9508564 C125.990239,41.7372668 125.680371,41.4624577 125.397302,41.1277149 C125.153348,40.8681214 124.945972,40.5818114 124.775754,40.2687848 C124.603291,39.9555438 124.463495,39.6300876 124.355642,39.2944162 C124.247282,38.9412433 124.16326,38.5933566 124.10314,38.2497559 C124.042731,37.9038694 124.002748,37.5479105 123.981743,37.1808079 C123.98138,37.1500196 123.98138,37.1153738 123.981163,37.0777277 C123.981163,37.0387958 123.981163,36.9967208 123.980946,36.9513598 C123.980511,36.9201429 123.980366,36.8857114 123.980149,36.8470652 C123.980149,36.8092049 123.979932,36.7670584 123.979497,36.720483 C123.979135,36.6893375 123.979135,36.6628353 123.978918,36.6395476 C123.978918,36.61726 123.978918,36.5905434 123.9787,36.5595408 C123.9787,36.5441109 123.9787,36.5206803 123.9787,36.4921065 C123.978483,36.4608895 123.978266,36.437459 123.978266,36.4230292 C123.977686,36.3766681 123.977469,36.3266638 123.977252,36.2733736 C123.977034,36.2191547 123.981163,36.1614355 123.991231,36.1000731 C124.00847,35.7475432 124.048091,35.4065142 124.109514,35.0769147 C124.171083,34.7470295 124.253656,34.4139298 124.357743,34.0761868 C124.462843,33.7372294 124.597351,33.4194881 124.761412,33.1201769 C124.923807,32.8199371 125.121694,32.5404847 125.353118,32.2786768 C125.632565,31.9388621 125.939536,31.6632673 126.272366,31.446606 C126.605413,31.2295161 126.965695,31.0671452 127.353575,30.9575644 C127.730734,30.8480551 128.116367,30.7664053 128.508737,30.7111863 C128.90089,30.6558959 129.305356,30.6275364 129.721774,30.6255362 L134.158155,30.5805324 L134.170903,33.1088902 L130.157242,33.1281061 C129.729959,33.1458934 129.347874,33.1898257 129.008091,33.2601174 C128.668887,33.3307662 128.374664,33.4286317 128.12209,33.5519279 C127.860751,33.6752241 127.666051,33.8945284 127.537555,34.2094124 C127.407175,34.5248678 127.339378,34.9345455 127.331845,35.4407314 L134.182203,35.3848695 L134.194879,37.9119415 L127.344303,37.9451586 C127.357486,38.4657743 127.426877,38.8879531 127.554576,39.2091232 C127.681914,39.5302934 127.867922,39.7512408 128.110211,39.8731083 C128.353296,39.979403 128.644404,40.0624101 128.984043,40.1217723 C129.324261,40.181063 129.716849,40.2102798 130.163616,40.2082082 L134.206178,40.1651331 L134.218926,42.6932052 L129.782545,42.714707 Z M136.091466,30.5712459 L141.19597,30.5463152 C142.01048,30.5578876 142.658683,30.6576818 143.13877,30.8461978 C143.620232,31.0357854 143.925321,31.3293818 144.053455,31.7268441 C144.189991,32.1091623 144.289587,32.5655583 144.350358,33.093246 C144.411347,33.6213624 144.444159,34.2154843 144.446839,34.8746118 C144.447635,34.9357598 144.447853,34.9964793 144.44807,35.0588417 C144.448287,35.1196326 144.448722,35.1807807 144.448867,35.2429288 C144.448867,35.2727171 144.449084,35.3038626 144.449519,35.3350795 C144.449519,35.3647963 144.449953,35.395799 144.450098,35.4270159 C144.450316,35.4713054 144.450316,35.5090229 144.450316,35.5401684 C144.450316,35.5713853 144.450533,35.6013164 144.450967,35.6321048 L141.542128,35.6231754 C141.542128,35.5932443 141.541548,35.5541696 141.541331,35.5088086 C141.541113,35.4632333 141.541113,35.4178723 141.540896,35.3712969 C141.540534,35.3415086 141.540534,35.3180781 141.540534,35.3024339 C141.540317,35.2870754 141.540317,35.2635734 141.539882,35.2337852 C141.539882,35.2182124 141.539882,35.1994251 141.539665,35.1761374 C141.539665,35.1528497 141.53952,35.133991 141.53952,35.1184182 C141.53684,34.5660141 141.513227,34.1267625 141.467594,33.7965201 C141.422033,33.4680636 141.35554,33.2576886 141.267461,33.1661808 C141.179383,33.0744587 140.989246,33.0065958 140.691691,32.9614491 C140.396671,32.9175168 139.98641,32.8962293 139.463081,32.8988724 C139.423822,32.8988724 139.389996,32.8990867 139.360805,32.8990867 C139.332484,32.899301 139.308074,32.8995153 139.288517,32.8995153 C139.279536,32.8995153 139.26715,32.8996581 139.252808,32.8996581 C139.238031,32.8996581 139.2255,32.8998724 139.215432,32.8998724 C139.196382,32.8998724 139.179723,32.9000867 139.164946,32.9000867 C139.150532,32.9000867 139.138219,32.900301 139.12902,32.900301 L139.17784,42.6691317 L136.15202,42.6839187 L136.091466,30.5712459 Z M146.358999,30.5210273 L152.205942,30.4924534 C153.059494,30.5038115 153.823083,30.6366086 154.498159,30.8942019 C155.173091,31.1523667 155.749658,31.5324704 156.228223,32.0358704 C156.714466,32.5540573 157.090756,33.1623233 157.356658,33.8574539 C157.620749,34.553013 157.775321,35.3463662 157.819505,36.2349417 C157.840656,36.6476197 157.832399,37.0501539 157.796472,37.4407586 C157.759096,37.8317918 157.697745,38.2278255 157.61213,38.6253593 C157.51746,39.009892 157.388529,39.3810664 157.226279,39.7423114 C157.062652,40.1037707 156.860854,40.437442 156.620593,40.7458253 C156.331513,41.1455736 156.017805,41.4719585 155.680412,41.7266944 C155.341063,41.9810732 154.974117,42.1626601 154.576387,42.2724551 C154.190174,42.3807501 153.78549,42.4636143 153.363785,42.5188332 C152.942442,42.5755523 152.513928,42.6041262 152.076432,42.6061264 L149.460222,42.6189132 L149.481734,46.985213 L146.44179,47 L146.358999,30.5210273 Z M149.412561,33.1262488 L149.446821,40.0219066 C149.466378,40.0217638 149.487674,40.0251926 149.512156,40.0326933 C149.535769,40.0403368 149.563077,40.0448371 149.592195,40.0446228 C149.6111,40.0441942 149.632685,40.0441942 149.657529,40.0441942 C149.68136,40.0441942 149.703742,40.0439799 149.722791,40.0439799 C149.751982,40.0438371 149.783346,40.0436228 149.817462,40.0436228 C149.851143,40.0434085 149.888084,40.0431941 149.926473,40.0429798 C149.945378,40.0429798 149.963269,40.0427655 149.976959,40.0427655 C149.991808,40.0424084 150.009626,40.0424084 150.028531,40.0424084 C150.726207,40.0545523 151.358982,40.0203351 151.925699,39.941114 C152.492632,39.8617501 152.993145,39.743883 153.428902,39.5890127 C153.864732,39.4169266 154.185466,39.0570389 154.391176,38.5034204 C154.596089,37.9514449 154.686847,37.1920946 154.663089,36.2272268 C154.640056,35.4138005 154.517282,34.7790322 154.297157,34.3205647 C154.076019,33.8613113 153.757966,33.5723582 153.339737,33.4522766 C152.923392,33.3314091 152.46489,33.245759 151.965102,33.1936831 C151.464372,33.1428931 150.924311,33.1189625 150.342674,33.1218199 C150.284365,33.1222485 150.227867,33.1256774 150.176585,33.1335352 C150.12255,33.141893 150.071412,33.146322 150.023389,33.1465363 C149.994271,33.1469649 149.966963,33.1471077 149.942481,33.1471077 C149.918651,33.1473221 149.891561,33.1475364 149.862442,33.1475364 C149.824415,33.1477507 149.784794,33.147965 149.746622,33.147965 C149.707436,33.1481793 149.673754,33.1483221 149.644129,33.1483221 C149.606174,33.1485364 149.567567,33.148965 149.528381,33.1491794 C149.490354,33.1493937 149.450516,33.1495365 149.412561,33.1497508 L149.412561,33.1262488 Z M159.666766,30.4560218 L164.770039,30.4310911 C165.585562,30.4428778 166.232969,30.5428863 166.712983,30.7314023 C167.194301,30.9209184 167.499389,31.214372 167.627523,31.6120486 C167.764422,31.9941526 167.863655,32.4507628 167.924426,32.9784505 C167.985415,33.5063526 168.01801,34.1009031 168.020907,34.759602 C168.021704,34.8205358 168.021921,34.8818981 168.022139,34.943832 C168.022356,35.0047657 168.022935,35.0657709 168.022935,35.1277047 C168.023153,35.1580645 168.023153,35.1890671 168.023153,35.2202126 C168.023587,35.2500009 168.023805,35.2812178 168.024167,35.312149 C168.024384,35.3565099 168.024601,35.394156 168.024601,35.4251586 C168.024601,35.4563755 168.024819,35.4860924 168.025036,35.5173093 L165.115979,35.5081657 C165.115834,35.4782345 165.115834,35.4393741 165.115399,35.3937988 C165.115399,35.3484378 165.115182,35.3030768 165.114965,35.2562871 C165.114603,35.226356 165.114603,35.2030683 165.114168,35.1876384 C165.114168,35.1720657 165.113951,35.148778 165.113951,35.1189897 C165.113951,35.1032027 165.113951,35.0843439 165.113733,35.0610562 C165.113733,35.0377685 165.113733,35.0189812 165.113733,35.0035513 C165.110909,34.4510043 165.087295,34.0117527 165.041445,33.6815103 C164.996102,33.3534824 164.929971,33.1428931 164.841675,33.0513853 C164.753596,32.9596632 164.563315,32.8918003 164.265759,32.8466536 C163.970957,32.802507 163.560479,32.7814338 163.03715,32.7836483 C162.998108,32.7838626 162.96421,32.7840769 162.935091,32.7842912 C162.906553,32.7842912 162.883302,32.7845055 162.862586,32.7845055 C162.853966,32.7848627 162.841435,32.7848627 162.826876,32.7848627 C162.812317,32.785077 162.800004,32.785077 162.79095,32.785077 C162.770596,32.7852913 162.753791,32.7852913 162.739232,32.7852913 C162.724384,32.7855056 162.712287,32.7855056 162.703233,32.7855056 L162.751908,42.5541219 L159.727538,42.5689089 L159.666766,30.4560218 Z M173.164452,42.5036891 L169.97986,42.5188332 L169.919523,30.4062318 L173.103826,30.3905876 L173.164452,42.5036891 Z M173.09709,29.0106131 L169.912714,29.0264002 L169.897359,26.0153584 L173.081879,26 L173.09709,29.0106131 Z M175.595234,39.9631873 L181.97934,39.9324704 C181.989553,39.9320418 181.994334,39.9366851 181.994334,39.9444 C181.994334,39.9520435 181.999042,39.9555438 182.00911,39.9553295 C182.017947,39.9553295 182.028378,39.9553295 182.036997,39.9553295 C182.047283,39.9553295 182.055902,39.9551152 182.066188,39.9551152 C182.076618,39.9551152 182.080964,39.9551152 182.080964,39.9551152 C182.080964,39.9551152 182.085455,39.9551152 182.09574,39.9549009 C182.104794,39.9549009 182.114863,39.9549009 182.124714,39.9549009 C182.133695,39.9549009 182.143981,39.9546866 182.153832,39.9546866 C182.32854,39.9536865 182.500424,39.9296131 182.668976,39.8834663 C182.838614,39.8360337 183.001226,39.7740998 183.156233,39.6967361 C183.311022,39.6195867 183.426408,39.5035768 183.503043,39.3500638 C183.580039,39.1955506 183.618211,38.9977481 183.61698,38.7517272 C183.616111,38.5376376 183.575693,38.3534076 183.497248,38.1996802 C183.419237,38.0482388 183.311457,37.933229 183.176152,37.8575083 C183.020493,37.7815733 182.865269,37.7214253 182.709248,37.6754928 C182.554024,37.6307033 182.394092,37.6005579 182.229017,37.5857709 C182.209678,37.5859852 182.188093,37.5859852 182.163683,37.5861281 C182.138838,37.5863424 182.117688,37.5863424 182.09842,37.5865567 C182.078067,37.5865567 182.056916,37.586771 182.032072,37.586771 C182.00969,37.586771 181.986729,37.586771 181.967824,37.5869853 L179.349151,37.5776273 C178.73854,37.5950574 178.190511,37.5602687 177.706586,37.4703325 C177.21998,37.3806106 176.803128,37.2439561 176.453494,37.0637265 C176.102555,36.8810681 175.834408,36.5564691 175.647603,36.090358 C175.460943,35.6231754 175.365694,35.0144808 175.362217,34.2644885 C175.349469,33.5592142 175.433056,32.9573773 175.614719,32.4572634 C175.79667,31.9597211 176.071554,31.5632588 176.438934,31.2708768 C176.805373,30.9769946 177.235336,30.7566902 177.72933,30.6088919 C178.223323,30.4620937 178.779971,30.3861587 179.400868,30.3833013 L185.93013,30.3282252 L185.942878,32.8561544 L180.576746,32.8825138 C180.557479,32.8980866 180.535894,32.9057301 180.511484,32.9061587 C180.487654,32.906373 180.465055,32.906373 180.446149,32.906373 C180.436081,32.9065873 180.426882,32.9065873 180.416814,32.9065873 C180.406963,32.9065873 180.39733,32.9068016 180.387479,32.9068016 C180.377411,32.9068016 180.368356,32.9068016 180.358071,32.9069445 C180.349451,32.9069445 180.339238,32.9069445 180.32917,32.9069445 C180.310048,32.9069445 180.292809,32.9069445 180.278612,32.9069445 C180.263835,32.9071588 180.247031,32.9071588 180.227691,32.9073731 C180.188505,32.9075874 180.153592,32.9075874 180.11868,32.9078017 C180.085215,32.9082303 180.053635,32.9083732 180.02401,32.9085875 C179.986055,32.9085875 179.939842,32.9090161 179.885662,32.9090161 C179.833076,32.9092304 179.776651,32.9094447 179.718487,32.9100162 C179.592671,32.9250174 179.464319,32.9488766 179.334157,32.980665 C179.202329,33.0120963 179.078903,33.0505281 178.964748,33.0977464 C178.837483,33.1592516 178.739119,33.2409014 178.666614,33.3399099 C178.593963,33.4389183 178.539349,33.5579998 178.500959,33.6968688 C178.434393,33.9733209 178.43012,34.2029118 178.48966,34.3859988 C178.548982,34.5696573 178.656618,34.7077405 178.812204,34.7992482 C178.967863,34.9049715 179.140543,34.9816923 179.329449,35.0262675 C179.518716,35.0718428 179.720153,35.0932732 179.933903,35.0920588 L182.681724,35.0566273 C183.216208,35.0681997 183.708101,35.1392771 184.158779,35.2676452 C184.610327,35.394156 185.021747,35.5873867 185.390938,35.8475517 C185.751075,36.0909295 186.029508,36.4333872 186.225367,36.877425 C186.421081,37.3201055 186.530673,37.8567225 186.552475,38.4844187 C186.553054,38.4997772 186.553054,38.510921 186.553054,38.5186359 C186.553054,38.5265652 186.553054,38.5309941 186.553054,38.5309941 C186.553054,38.5309941 186.553054,38.5309941 186.553054,38.5309941 C186.553054,38.5309941 186.553054,38.5309941 186.553054,38.5309941 C186.553272,38.5453525 186.553272,38.5530674 186.553272,38.5530674 C186.553272,38.5530674 186.553272,38.5530674 186.553272,38.5530674 C186.555735,39.0446807 186.492718,39.5152921 186.364366,39.9684735 C186.23645,40.4206548 186.036896,40.8476911 185.766866,41.2460107 C185.497705,41.6467591 185.166106,41.9478561 184.775981,42.1473016 C184.384263,42.3487473 183.93583,42.4508275 183.430754,42.4532562 L175.607765,42.4913309 L175.595234,39.9631873 Z M193.859234,42.4026091 C193.442019,42.4046807 193.03777,42.3831788 192.644169,42.3396751 C192.251147,42.2950999 191.866383,42.220165 191.486761,42.1145131 C191.098882,42.0087899 190.737151,41.8506336 190.401206,41.6384012 C190.065552,41.4248116 189.756118,41.1502169 189.474425,40.8153312 C189.230036,40.5558806 189.022877,40.2693562 188.851646,39.9565439 C188.679979,39.643303 188.540183,39.3177039 188.431751,38.9823182 C188.322739,38.6287882 188.240021,38.2809014 188.179829,37.9373008 C188.119492,37.5914142 188.079871,37.2354554 188.057707,36.8683528 C188.057707,36.8371358 188.057489,36.8031329 188.057272,36.7652726 C188.056838,36.7264121 188.056403,36.6842657 188.056258,36.6389047 C188.056258,36.607902 188.056041,36.5734705 188.055823,36.5346101 C188.055606,36.496964 188.055389,36.4546033 188.055172,36.4082422 C188.055172,36.3770967 188.055172,36.350523 188.055027,36.3270924 C188.055027,36.3050191 188.054592,36.2783026 188.054158,36.2475142 C188.054158,36.2317272 188.05394,36.2084395 188.05394,36.1796513 C188.053795,36.1486487 188.053795,36.1252181 188.053795,36.1107883 C188.053795,36.0642129 188.053578,36.014423 188.052709,35.9611327 C188.052564,35.9066995 188.057852,35.8489804 188.066688,35.7880466 C188.085159,35.435088 188.1242,35.0942733 188.185189,34.7646739 C188.246974,34.4347887 188.329548,34.1016889 188.434431,33.7639459 C188.539966,33.4249885 188.674257,33.1070329 188.838101,32.8077932 C189.00093,32.5074819 189.198455,32.2280296 189.430024,31.9662216 C189.708457,31.626407 190.015428,31.3510264 190.348475,31.1339366 C190.682681,30.9172753 191.042456,30.75469 191.428887,30.6451807 C191.807495,30.5358143 192.191607,30.4538073 192.583977,30.3987312 C192.977579,30.3436551 193.381465,30.3150812 193.798897,30.3132953 L198.233467,30.2680772 L198.246143,32.7962208 L194.232916,32.8158653 C193.80672,32.8335097 193.423114,32.8775848 193.085214,32.9478765 C192.74601,33.0183825 192.450555,33.1163908 192.199213,33.2394727 C191.937874,33.3627689 191.743174,33.5822876 191.612795,33.8969572 C191.484298,34.2126269 191.41527,34.6223046 191.408751,35.1283476 L198.25766,35.0726286 L198.270408,37.5995578 L191.421499,37.6329178 C191.432943,38.1533192 191.503565,38.5755694 191.631337,38.8968824 C191.75882,39.2178383 191.944393,39.4387856 192.186899,39.5606531 C192.430636,39.6671622 192.720948,39.7500264 193.061166,39.8095314 C193.400733,39.8688222 193.792958,39.8980389 194.239073,39.8959673 L198.28149,39.8526779 L198.294239,42.3809644 L193.859234,42.4026091 Z M200.041904,39.8443201 L206.42659,39.8131746 C206.436658,39.8131746 206.441366,39.8173892 206.441366,39.8251042 C206.441366,39.8328191 206.445712,39.8360337 206.455563,39.8360337 C206.465848,39.8360337 206.47483,39.8360337 206.484319,39.8360337 C206.49417,39.8360337 206.503369,39.8360337 206.51322,39.8360337 C206.523505,39.8358194 206.527851,39.8358194 206.527851,39.8358194 C206.527851,39.8358194 206.532559,39.8358194 206.54241,39.8358194 C206.552478,39.8358194 206.561533,39.8356765 206.571746,39.8356765 C206.5808,39.8356765 206.591085,39.8356765 206.601371,39.8356765 C206.77521,39.8344621 206.947094,39.8105315 207.116877,39.7641704 C207.286515,39.7165949 207.448258,39.6550183 207.602903,39.5776546 C207.75791,39.5005051 207.873296,39.384281 207.949857,39.2309822 C208.026854,39.0763262 208.065461,38.8786666 208.064229,38.6324313 C208.062998,38.4184131 208.02258,38.2345404 207.944352,38.0806701 C207.86569,37.9288001 207.758706,37.8141475 207.623039,37.7382124 C207.467381,37.662706 207.311722,37.6023437 207.156715,37.5564113 C207.00236,37.5116217 206.841342,37.4814763 206.67547,37.4666893 C206.656565,37.4666893 206.635414,37.4669036 206.610135,37.467118 C206.586957,37.467118 206.56414,37.4673323 206.545308,37.4673323 C206.526185,37.4673323 206.503369,37.4673323 206.479756,37.4674751 C206.456577,37.4674751 206.434195,37.4679037 206.415145,37.4679037 L203.797052,37.4586172 C203.186441,37.475833 202.638412,37.4407586 202.153256,37.3510367 C201.666795,37.2613862 201.249798,37.1248746 200.900163,36.9444306 C200.549442,36.7622009 200.282309,36.437459 200.095939,35.9710622 C199.908627,35.503951 199.813595,34.8952564 199.809683,34.1454069 C199.796138,33.4399184 199.881175,32.8383672 200.062837,32.3383961 C200.244789,31.8402823 200.518224,31.4439629 200.886184,31.1515809 C201.252261,30.8579845 201.682006,30.6372515 202.177231,30.4895961 C202.670428,30.3430122 203.227873,30.2670771 203.847755,30.2642912 L210.377379,30.2090008 L210.390128,32.7372872 L205.024648,32.763218 C205.004366,32.7787907 204.982999,32.7869343 204.958154,32.7869343 C204.934758,32.7870771 204.912159,32.7872914 204.893037,32.7872914 C204.882606,32.7872914 204.873987,32.7872914 204.863701,32.7875057 C204.854647,32.7875057 204.844796,32.7875057 204.834728,32.7875057 C204.825746,32.7875057 204.815461,32.7875057 204.80561,32.7875057 C204.796121,32.7875057 204.78627,32.78772 204.776057,32.78772 C204.756935,32.78772 204.740275,32.7879343 204.725282,32.7879343 C204.710723,32.7879343 204.693918,32.7881487 204.675013,32.7881487 C204.635392,32.7882915 204.600697,32.7887201 204.565567,32.7889344 C204.531885,32.7891487 204.500449,32.7891487 204.471331,32.789363 C204.432942,32.7895059 204.386947,32.7895059 204.332912,32.7897202 C204.28018,32.7901488 204.2239,32.7905774 204.165012,32.7907203 C204.039123,32.8059359 203.912438,32.8296522 203.780827,32.8614406 C203.650665,32.8930147 203.527021,32.9314466 203.411418,32.9786649 C203.284588,33.0404558 203.186006,33.1216056 203.113356,33.2208283 C203.041865,33.3198367 202.986453,33.438704 202.947412,33.5776444 C202.881715,33.8542393 202.878021,34.0838303 202.93633,34.2664886 C202.996087,34.4505757 203.103505,34.5886589 203.258874,34.6800238 C203.41475,34.7855328 203.587213,34.8624679 203.776481,34.9069717 C203.965604,34.9527613 204.167475,34.9740488 204.381007,34.9729773 L207.129046,34.9373314 C207.663022,34.9491181 208.154988,35.0201956 208.606898,35.148778 C209.057431,35.2753601 209.469286,35.4685194 209.83826,35.7284701 C210.197963,35.9719194 210.476613,36.3143056 210.672037,36.7583434 C210.867751,37.2010239 210.977343,37.7372123 210.999724,38.3653372 C210.999724,38.3807671 210.999724,38.3919109 210.999942,38.3997687 C210.999942,38.4074836 210.999942,38.4116983 210.999942,38.4116983 C210.999942,38.4116983 210.999942,38.4116983 210.999942,38.4116983 C210.999942,38.4116983 210.999942,38.4116983 210.999942,38.4116983 C210.999942,38.4262709 210.999942,38.4339859 210.999942,38.4339859 C210.999942,38.4339859 210.999942,38.4339859 210.999942,38.4339859 C211.002187,38.9256706 210.939605,39.3960677 210.811471,39.8491777 C210.683119,40.3015733 210.484001,40.7284667 210.213753,41.1271435 C209.944592,41.5276775 209.614659,41.8285603 209.222651,42.0280058 C208.831151,42.2295229 208.383152,42.3317459 207.87909,42.3341747 L200.054652,42.3722493 L200.041904,39.8443201 Z" id="Fill-2" fill="#29317C"></path>
                <path d="M9.68842485,20.9995998 C8.95425816,21.0031554 8.25120022,20.9829828 7.5818555,20.9406058 C6.9120767,20.8980111 6.25705647,20.8305273 5.62236546,20.7412744 C4.98767444,20.6526021 4.38271762,20.4586404 3.8097377,20.1649042 C3.23675778,19.8710228 2.6924992,19.4672081 2.16336093,18.9747936 C1.70157673,18.5444933 1.31930073,18.1057756 1.03461942,17.6427492 C0.750010458,17.1797228 0.556195659,16.6865101 0.434799156,16.1689887 C0.312751539,15.6485647 0.210020291,15.1240772 0.15199884,14.5958165 C0.0933262747,14.0674105 0.061566403,13.5235486 0.0593236785,12.9661174 L0.0172906819,4.46104622 L0,1.04019483 L4.1373925,1.01958685 C4.36072445,1.15455458 4.58405639,1.28988512 4.80760538,1.42478029 L4.8599115,11.9948577 C4.86461398,12.9223618 4.90462129,13.7467533 5.02008543,14.4604859 C5.13554957,15.1746539 5.33298166,15.7695277 5.57931962,16.2549762 C5.82992599,16.7496402 6.31840584,17.1254455 7.0665353,17.3621469 C7.81444773,17.598921 8.82562706,17.7194486 10.0952985,17.70958 L19.4124439,17.6355654 L19.4288664,20.9512726 L19.2643518,20.9522885 L9.68842485,20.9995998 Z M27.2399863,20.9125964 L22.2230117,20.9374856 L22.1241871,0.93055169 L27.1410893,0.90566248 L27.2399863,20.9125964 Z M44.5134498,20.8270442 L31.9813227,20.8891584 L31.8826429,0.882369662 L43.5889409,0.82395621 C43.6896465,0.823811083 43.7835515,0.851167445 43.8750692,0.850732066 C43.9669485,0.850078996 44.0623005,0.84949849 44.1613421,0.84906311 C44.2031581,0.84906311 44.2493148,0.84884542 44.2989441,0.848482603 C44.3477053,0.848264914 44.4010242,0.847829534 44.4574541,0.847611844 C44.4999211,0.865970357 44.5452097,0.875185896 44.5950561,0.874968206 C44.6444683,0.8743877 44.6916379,0.87373463 44.7326581,0.87417001 C45.5228205,0.88672346 46.2828147,0.964656438 47.009168,1.09962417 C47.7359555,1.23473702 48.442486,1.40772791 49.1184142,1.63296438 C49.8121395,1.86378822 50.3814298,2.24387476 50.8278766,2.75254345 C51.2751916,3.26121215 51.6334488,3.90013196 51.843252,4.68417835 C52.0345347,5.40182934 52.0792445,6.07158855 52.0331602,6.67567797 C51.9867864,7.27962227 51.8229228,7.82486287 51.5435951,8.30827954 C51.2644844,8.79184133 50.8840894,9.24557961 50.4066785,9.66543084 C49.9299187,10.0848467 49.3454358,10.4742213 48.6555448,10.8304345 C49.4192287,11.1424567 50.0570306,11.5026609 50.5662013,11.9078543 C51.0752274,12.3130478 51.4599632,12.7674391 51.7165019,13.2672551 C51.9726066,13.7672888 52.1209158,14.329872 52.158608,14.951304 C52.1963726,15.5724458 52.1369043,16.2580238 51.9668913,17.0001287 C51.7926099,17.7632768 51.4759517,18.3966093 51.0342073,18.8995455 C50.5933311,19.4028445 50.0427061,19.7957021 49.3784255,20.0505444 C48.7199327,20.3023391 48.0253393,20.4854163 47.3067993,20.6182796 C46.588621,20.751143 45.846858,20.8202959 45.0849828,20.8241417 C45.0425158,20.8243594 45.0035936,20.8245771 44.9682888,20.8245771 C44.9330563,20.8250125 44.9018752,20.8250125 44.8731539,20.8252302 C44.8591911,20.8252302 44.8413217,20.8253753 44.8201967,20.8253753 C44.7989269,20.825593 44.7814916,20.825593 44.7673118,20.825593 C44.753566,20.8258107 44.7392415,20.8258107 44.7250617,20.8260284 C44.7109543,20.8260284 44.6972085,20.8260284 44.6828117,20.826246 C44.6545244,20.826246 44.6264542,20.8264637 44.5979499,20.8268266 C44.5698073,20.8268266 44.5417371,20.8268266 44.5134498,20.8270442 Z M43.8399814,17.2910349 C44.2913478,17.3080873 44.7078434,17.2774656 45.0884554,17.2017095 C45.4688504,17.1256632 45.7999055,17.0028135 46.0814759,16.8343941 C46.3626123,16.6659021 46.5808077,16.4231779 46.7339641,16.1066568 C46.8871928,15.7904985 46.9636624,15.4091059 46.9614197,14.9632044 C46.959177,14.5172304 46.8785836,14.136128 46.7226781,13.821421 C46.5668449,13.5077298 46.3451769,13.265441 46.0628107,13.1004321 C45.7800104,12.9354957 45.4477254,12.810832 45.0663176,12.7291983 C44.6849097,12.6477097 44.2665331,12.6096865 43.8166136,12.6101219 L36.725119,12.6173057 L36.7482697,17.3263732 L43.8399814,17.2910349 Z M36.6848946,4.45255632 L36.7079007,9.07861147 L43.7355862,9.04363597 C44.1876037,9.04153163 44.6006267,9.02963125 44.9736424,8.95416542 C45.3468752,8.87862703 45.6840073,8.75788171 45.9772978,8.58655977 C46.259664,8.42184109 46.4770636,8.17947969 46.6300029,7.8730449 C46.7832316,7.56653754 46.8594843,7.18891816 46.8570245,6.74316184 C46.8549988,6.31590916 46.7825805,5.94837607 46.6402761,5.64353767 C46.4983333,5.33848158 46.2699371,5.10134474 45.9594283,4.9363358 C45.6485578,4.77161712 45.3080977,4.64615519 44.9414485,4.56510199 C44.5749439,4.48404879 44.1633678,4.44559024 43.7130142,4.44580793 L36.6848946,4.45255632 Z M55.845864,0.763293296 L67.6577872,0.704662154 C67.7144341,0.704444464 67.7722385,0.709451331 67.8274385,0.717868673 C67.8830001,0.725850636 67.9403705,0.731438009 67.9968003,0.73078494 C68.0392674,0.73056725 68.0888967,0.730422123 68.1450372,0.730204433 C68.201467,0.729986743 68.2582586,0.729769054 68.3144714,0.729551364 C68.3565044,0.729333674 68.3956435,0.728970857 68.4313824,0.728753167 C68.4661808,0.728535478 68.5051753,0.728317788 68.5467742,0.728100098 C68.5616051,0.728100098 68.5790405,0.728100098 68.6003102,0.727954971 C68.6212182,0.727954971 68.6405346,0.72461706 68.6530504,0.727737281 C68.710059,0.741741997 68.7697444,0.754875953 68.8331195,0.754658264 C68.8966392,0.754440574 68.9582056,0.752191112 69.0133333,0.753860067 C69.4508092,0.766776334 69.8812676,0.809806367 70.3047085,0.872501054 C70.7282216,0.935485994 71.1479728,1.00456625 71.5550635,1.10354258 C71.9664226,1.20309942 72.3617932,1.36005383 72.7424052,1.54327615 C73.1243195,1.72635334 73.4694097,1.96211149 73.7840422,2.23480435 C74.0632976,2.47752857 74.316002,2.73897412 74.5284097,3.02509119 C74.7406727,3.31178876 74.9177032,3.61503077 75.0618164,3.92828651 C75.2152621,4.26193254 75.3443996,4.59637677 75.4373642,4.92936973 C75.5302564,5.26258038 75.5989127,5.59767767 75.6222804,5.93168651 C75.6270553,6.00475775 75.6229315,6.07572465 75.6233656,6.14052368 C75.6237273,6.20590321 75.6239444,6.26613074 75.6239444,6.32193191 C75.6241614,6.3587215 75.6243785,6.39594647 75.6243785,6.43360682 C75.6247402,6.4706141 75.6319748,6.49840585 75.6465163,6.51690949 C75.6465163,6.55413446 75.6467334,6.58642512 75.6467334,6.61443455 C75.6467334,6.64258911 75.6467334,6.67487978 75.6470951,6.71166937 C75.650423,7.39935171 75.5649101,8.05075241 75.3924373,8.66391225 C75.2197476,9.27707208 74.9423008,9.83718816 74.5642933,10.3399067 C74.1867921,10.8426252 73.7077172,11.2646533 73.1312647,11.6009842 C72.5553909,11.9372425 71.8706365,12.1923024 71.0815593,12.3630439 L76.7955147,20.6670422 L71.3973493,20.6935278 L66.3420314,12.8606104 L60.6900041,12.8886198 L60.7287092,20.7466441 L55.9443269,20.7700821 L55.845864,0.763293296 Z M66.5323736,4.27695315 L60.6478988,4.3059059 L60.6723517,9.34985307 L66.5571883,9.32090031 C66.5715128,9.33918626 66.5895993,9.34825668 66.6100732,9.34825668 C66.6314152,9.34803899 66.6562299,9.34803899 66.6843001,9.34803899 C66.698697,9.34803899 66.7167111,9.3478213 66.7372573,9.3478213 C66.7583824,9.34760361 66.783197,9.34760361 66.8117013,9.34738592 C67.3198593,9.34477364 67.8038537,9.30914506 68.2607183,9.24274965 C68.7186682,9.17606398 69.1562889,9.0831104 69.5614985,8.94342606 C69.9724959,8.80214532 70.2798938,8.5394662 70.4890459,8.18673602 C70.6982704,7.83335278 70.8026656,7.36720617 70.7997718,6.79148899 C70.797095,6.19726817 70.6843076,5.72292192 70.4646653,5.3724412 C70.245023,5.0209446 69.9093378,4.77263301 69.4557287,4.65275845 C69.0199167,4.53709256 68.5542259,4.45669243 68.0673376,4.39501363 C67.5811005,4.33326226 67.0686018,4.30198748 66.5325907,4.30489001 L66.5323736,4.27695315 Z M86.201935,0.612724459 L91.2822846,0.587617559 L101.096736,20.5462969 L95.7629587,20.5730002 L93.6437288,15.8184354 L83.7367468,15.8676333 L81.7279892,20.6425158 L76.6899619,20.667405 L86.201935,0.612724459 Z M88.5709755,4.5856374 L85.2645486,12.29273 L92.0594972,12.2594235 L88.5709755,4.5856374 Z M128.177706,3.8324304 C127.020677,3.85666654 126.069183,4.03792965 125.322645,4.37563923 C124.57618,4.71378418 124.035249,5.20888354 123.699709,5.86057449 C123.350061,6.5309142 123.089398,7.2475493 122.916564,8.0100444 C122.744236,8.77268462 122.645628,9.59054552 122.621826,10.4636996 C122.622261,10.6122367 122.622839,10.7658532 122.624069,10.9236058 C122.624503,11.081431 122.625516,11.2348298 122.626384,11.3833668 C122.626963,11.5318313 122.627759,11.685085 122.628193,11.843273 C122.629423,12.0012433 122.637019,12.1538439 122.651995,12.3028163 C122.681729,12.6372606 122.732588,12.9618362 122.805006,13.2775591 C122.876918,13.5927015 122.970462,13.9084244 123.084913,14.2235667 C123.184967,14.5199152 123.320544,14.8072659 123.491352,15.0851833 C123.662017,15.3631007 123.874641,15.6222243 124.130167,15.8622636 C124.385259,16.1025207 124.658003,16.3055528 124.9484,16.4715051 C125.238579,16.6368768 125.552995,16.7469553 125.891791,16.8010875 C126.216624,16.8551472 126.551875,16.8954924 126.897834,16.9213975 C127.243792,16.9475203 127.593295,16.9596383 127.945982,16.9578243 C127.959945,16.9578243 127.967324,16.9578243 127.967324,16.9578243 C127.967324,16.9578243 127.974269,16.9578243 127.988449,16.9578243 C128.002629,16.9578243 128.016519,16.9576066 128.030916,16.9576066 C128.044879,16.9576066 128.058986,16.9573889 128.072732,16.9573889 C128.086912,16.9573889 128.101236,16.9571712 128.115416,16.9571712 C128.129307,16.9571712 128.143703,16.9569535 128.157811,16.9569535 C128.171557,16.9569535 128.185736,16.9567358 128.199916,16.9567358 C128.214024,16.9567358 128.228203,16.9565907 128.242094,16.9565907 L136.117023,16.8896873 L136.134024,20.3726529 L128.026358,20.4129981 C127.37756,20.4162634 126.742435,20.3960908 126.121055,20.3529157 C125.499676,20.3090874 124.885459,20.2336216 124.278259,20.1252121 C123.67077,20.035161 123.091062,19.8703698 122.539786,19.6319993 C121.988148,19.3934112 121.443239,19.0898064 120.904985,18.7205318 C120.267979,18.2778957 119.725746,17.7790956 119.278503,17.2239864 C118.831043,16.668587 118.478719,16.0669647 118.221746,15.4175958 C117.964556,14.7688073 117.767269,14.1058691 117.629884,13.4283456 C117.492282,12.7509672 117.408216,12.0687272 117.3766,11.3814802 C117.375805,11.3070303 117.371898,11.2332334 117.364302,11.1587109 C117.356922,11.0842609 117.353016,11.009811 117.352871,10.9361593 C117.352437,10.8799953 117.352003,10.8150511 117.351641,10.7407463 C117.351424,10.6662964 117.351207,10.5924995 117.350556,10.517977 C117.34976,10.3690771 117.356561,10.2248938 117.370089,10.0858626 C117.383184,9.9466136 117.39693,9.81186357 117.410458,9.68168502 C117.515505,8.10154671 117.808506,6.73060839 118.289389,5.56720109 C118.770707,4.40364866 119.439907,3.44820776 120.297134,2.70095095 C121.154289,1.95362158 122.231375,1.39089323 123.528032,1.01262078 C124.824327,0.634928828 126.333463,0.441837901 128.05508,0.433202869 L136.035634,0.365719005 L136.052418,3.79331879 L128.177706,3.8324304 Z M148.687493,20.3105387 C147.953327,20.3140218 147.251137,20.2942845 146.580562,20.2511094 C145.910349,20.2079342 145.25721,20.1416839 144.621651,20.0524311 C143.985947,19.9623075 143.381424,19.7702324 142.808806,19.4756254 C142.235464,19.1815264 141.686648,18.7847503 141.162285,18.2852972 C140.694062,17.8608019 140.318369,17.4167145 140.03376,16.9536881 C139.748862,16.4906618 139.549332,15.9996985 139.433868,15.4799276 C139.303862,14.9605196 139.20974,14.4358144 139.151067,13.9067554 C139.091599,13.3779141 139.060852,12.8344876 139.057813,12.2772741 L138.999358,0.351133782 L143.804431,0.327260459 L143.858835,11.3060144 C143.849141,12.2351148 143.902894,13.0568215 144.018792,13.7712072 C144.135486,14.4860282 144.321632,15.0843851 144.578388,15.5660603 C144.820602,16.0660939 145.316244,16.4351508 146.065604,16.6733036 C146.814963,16.9108758 147.824334,17.0269045 149.094367,17.0207366 L154.746249,16.9645726 L154.762455,20.2804975 L148.687493,20.3105387 Z M162.340983,20.2429097 L157.324225,20.2677989 L157.2254,0.261010171 L162.242158,0.235903271 L162.340983,20.2429097 Z M177.353129,3.72728619 L171.785746,3.75507793 L171.814829,9.66252831 L177.657416,9.63350299 C178.236183,9.63045533 178.77574,9.57697618 179.276084,9.47248504 C179.776718,9.3677762 180.245303,9.22134347 180.681911,9.03354967 C181.090231,8.82703453 181.402549,8.52814632 181.619297,8.1369576 C181.836263,7.74569632 181.943118,7.2625699 181.940441,6.68641734 C181.950931,6.03617766 181.842846,5.51190786 181.615173,5.1136805 C181.387139,4.71545313 181.03315,4.43383499 180.552484,4.269334 C180.071817,4.10417994 179.570605,3.97704905 179.047616,3.88649006 C178.524699,3.79622132 177.960545,3.75239309 177.353129,3.75529562 L177.353129,3.72728619 Z M166.983712,0.212465327 L177.399286,0.160655134 C177.399286,0.179376464 177.406448,0.188592003 177.420772,0.188374313 C177.434735,0.188374313 177.448698,0.188374313 177.462805,0.188229186 C177.462805,0.188229186 177.466278,0.188229186 177.47373,0.188229186 C177.480241,0.188229186 177.491093,0.188229186 177.505055,0.188011496 C177.519452,0.188011496 177.52987,0.188011496 177.53667,0.188011496 C177.54405,0.188011496 177.547739,0.188011496 177.547739,0.188011496 C177.67449,0.187140737 177.805074,0.18656023 177.939203,0.185762034 C178.073333,0.185326654 178.210718,0.184673585 178.352009,0.183657699 C178.422764,0.183657699 178.489467,0.183294882 178.552986,0.182859502 C178.616361,0.182641812 178.683643,0.181988743 178.75418,0.181843616 C178.880931,0.181408236 179.01137,0.185326654 179.1455,0.193961686 C179.279774,0.202379029 179.418027,0.206732826 179.558667,0.205644377 C179.62906,0.20549925 179.696125,0.209562795 179.759862,0.218633207 C179.823237,0.227485928 179.890735,0.231767163 179.961056,0.231404346 C180.130852,0.2488921 180.30658,0.266742671 180.490556,0.284230425 C180.674314,0.302153559 180.857422,0.319641313 181.041181,0.337709573 C181.210977,0.355197327 181.387139,0.377619385 181.570464,0.404758057 C181.754439,0.431533913 181.930819,0.463171509 182.100398,0.499380593 C182.453157,0.572234141 182.796438,0.663155949 183.128651,0.773161904 C183.460646,0.882805042 183.782803,1.0113872 184.093094,1.15825531 C184.659563,1.45278972 185.14146,1.7940549 185.53806,2.18219596 C185.935312,2.57048215 186.254791,3.0147872 186.497223,3.51547393 C186.739799,4.0155076 186.9258,4.52990879 187.055444,5.05896777 C187.184654,5.58759137 187.25823,6.12180235 187.275086,6.65985918 C187.277546,7.16177948 187.230521,7.654194 187.133939,8.13753811 C187.037575,8.6210999 186.884563,9.09588154 186.675194,9.56115738 C186.480149,10.0265784 186.213988,10.4505657 185.877073,10.8331194 C185.540303,11.2153102 185.13285,11.565791 184.654571,11.8841987 C184.24654,12.1277211 183.827368,12.3338734 183.397922,12.5029459 C182.968477,12.6725989 182.513421,12.8050995 182.034346,12.8999397 C181.555271,12.9768568 181.07909,13.0394063 180.606598,13.088314 C180.133745,13.1372942 179.657564,13.1718344 179.178055,13.1932405 C179.050944,13.193821 178.923759,13.1942564 178.797009,13.1950546 C178.670114,13.1957077 178.543147,13.1961431 178.416253,13.1969413 C178.289285,13.1975218 178.161957,13.1979571 178.034989,13.1987553 C177.907805,13.1994084 177.78091,13.1999889 177.65416,13.2008597 L171.832265,13.2014402 L171.866918,20.1958161 L167.082536,20.2194718 L166.983712,0.212465327 Z M209.826332,3.56648593 L197.992705,3.6252622 C197.470946,3.64645068 196.987819,3.704719 196.543615,3.79970436 C196.099411,3.89519765 195.701581,4.03604301 195.349907,4.22361912 C194.997799,4.4112678 194.737716,4.67699459 194.57038,5.02152511 C194.402682,5.36583794 194.31999,5.7891722 194.322233,6.29101995 C194.324331,6.68061228 194.396677,7.01491138 194.539416,7.29253854 C194.68172,7.57103647 194.90838,7.79278989 195.219902,7.95779883 C195.517243,8.12375108 195.842511,8.24776175 196.195197,8.32925033 C196.548752,8.41131942 196.929581,8.45144692 197.339348,8.44934258 L203.689659,8.38991325 C203.802446,8.40805407 203.922613,8.4166891 204.04958,8.41603603 C204.176547,8.41545552 204.303876,8.41480246 204.430843,8.41422195 C204.50138,8.41378657 204.568228,8.41356888 204.63182,8.41298837 C204.69534,8.41277068 204.755242,8.41255299 204.811672,8.4123353 C204.882427,8.43062125 204.949274,8.43969167 205.013011,8.43911116 C205.076386,8.43867578 205.136505,8.43845809 205.192646,8.4382404 C205.376188,8.45594584 205.559946,8.47365129 205.743705,8.49113904 C205.927247,8.50898961 206.110354,8.52647737 206.29433,8.5444005 C206.463909,8.58060958 206.640288,8.61718148 206.824047,8.65339057 C207.007589,8.68901915 207.19113,8.72544592 207.375323,8.76158244 C207.728227,8.83443599 208.064346,8.95351235 208.382234,9.1188841 C208.700701,9.28469123 209.001154,9.47821754 209.28475,9.69997097 C209.53948,9.90278537 209.76274,10.1296908 209.954963,10.3791634 C210.146245,10.628636 210.30707,10.8925487 210.435412,11.1710466 C210.563609,11.4674677 210.671043,11.7597526 210.756773,12.0471033 C210.843299,12.3346716 210.901175,12.6366075 210.930693,12.9517499 C210.931054,13.0074785 210.931054,13.0589259 210.931271,13.1053664 C210.931488,13.1514441 210.938868,13.1932405 210.953409,13.2302478 C210.953626,13.2864118 210.953626,13.3374238 210.953843,13.3839369 C210.95406,13.4303774 210.954639,13.4721738 210.954856,13.5091811 C210.955073,13.5461884 210.958763,13.5879849 210.965925,13.6344254 C210.972943,13.6811561 210.976849,13.7226623 210.977211,13.7598873 C210.977428,13.8154708 210.981335,13.8662651 210.988714,13.9129233 C210.995876,13.9594364 210.999783,14.0013779 211,14.0382401 C210.977211,15.2088312 210.784264,16.1848075 210.421449,16.9670398 C210.058707,17.7489093 209.525083,18.3554659 208.821446,18.7864193 C208.118099,19.1983611 207.283444,19.5091497 206.317481,19.7183497 C205.352024,19.9275496 204.262277,20.035161 203.04824,20.0411112 L190.28352,20.104459 L190.265868,16.5375376 L202.268712,16.4781083 C202.805157,16.493782 203.298991,16.4639585 203.750357,16.3871865 C204.201579,16.3109225 204.617062,16.1878551 204.997457,16.0186375 C205.377418,15.8682138 205.64857,15.6113398 205.808744,15.2485233 C205.968918,14.8852714 206.012543,14.4255104 205.939546,13.8680792 C205.880511,13.4414796 205.762587,13.0936837 205.584761,12.8248367 C205.407007,12.5566427 205.155967,12.3673977 204.830699,12.2579722 C204.519829,12.1663973 204.17387,12.0936164 203.79239,12.0401372 C203.410765,11.986005 203.001432,11.9508844 202.564245,11.9346302 L196.911567,11.9347753 C195.740575,11.9593017 194.688955,11.8667109 193.756488,11.6579463 C192.823804,11.4487464 192.010635,11.1414408 191.317055,10.7362474 C190.637437,10.3123326 190.130292,9.72057894 189.795258,8.9603333 C189.459934,8.20030536 189.29607,7.26293272 189.30468,6.14828795 C189.313289,4.99620052 189.499073,4.02022421 189.861888,3.21985107 C190.224414,2.41889742 190.758037,1.81277623 191.461891,1.40054415 C192.179201,0.969590742 193.021091,0.644797436 193.986982,0.426381919 C194.952077,0.207966402 196.049203,0.096073802 197.276769,0.0900510486 L209.808679,0 L209.826332,3.56648593 Z" id="Fill-3" fill="#29317C"></path>
                <path d="M243.960668,14.5839819 L243.078272,15.3378657 C242.587703,14.6394364 241.99884,14.1108691 241.311384,13.7523872 C240.623928,13.3937564 239.872566,13.2166741 239.05153,13.2206936 C238.15535,13.2249365 237.327795,13.4643958 236.566394,13.9423469 C235.805517,14.4197769 235.216804,15.0605931 234.801454,15.8611481 C234.385579,16.6643828 234.179402,17.5643093 234.184272,18.5615232 C234.191689,20.072045 234.666974,21.3276994 235.612676,22.3343666 C236.556055,23.3376842 237.744195,23.8375193 239.174771,23.8305223 C240.746271,23.822781 242.05915,23.1384945 243.110338,21.7747596 L244,22.5111511 C243.444176,23.2983822 242.748255,23.9107639 241.914107,24.3428627 C241.079286,24.7777155 240.145271,24.9946209 239.110191,24.9999058 C237.145742,25.0094336 235.594021,24.296266 234.450159,22.8597331 C233.492995,21.6494845 233.008794,20.1813165 233.000103,18.4581321 C232.991188,16.6454017 233.559897,15.1205137 234.707805,13.8766947 C235.853915,12.6332478 237.294456,12.0085097 239.030328,12.0000985 C240.080691,11.9945903 241.027442,12.2201302 241.874175,12.6723265 C242.720684,13.124895 243.417206,13.7623616 243.960668,14.5839819 Z" id="Fill-4" fill="#FFFFFE"></path>
                <path d="M243.960668,14.5839819 L243.078272,15.3378657 C242.587703,14.6394364 241.99884,14.1108691 241.311384,13.7523872 C240.623928,13.3937564 239.872566,13.2166741 239.05153,13.2206936 C238.15535,13.2249365 237.327795,13.4643958 236.566394,13.9423469 C235.805517,14.4197769 235.216804,15.0605931 234.801454,15.8611481 C234.385579,16.6643828 234.179402,17.5643093 234.184272,18.5615232 C234.191689,20.072045 234.666974,21.3276994 235.612676,22.3343666 C236.556055,23.3376842 237.744195,23.8375193 239.174771,23.8305223 C240.746271,23.822781 242.05915,23.1384945 243.110338,21.7747596 L244,22.5111511 C243.444176,23.2983822 242.748255,23.9107639 241.914107,24.3428627 C241.079286,24.7777155 240.145271,24.9946209 239.110191,24.9999058 C237.145742,25.0094336 235.594021,24.296266 234.450159,22.8597331 C233.492995,21.6494845 233.008794,20.1813165 233.000103,18.4581321 C232.991188,16.6454017 233.559897,15.1205137 234.707805,13.8766947 C235.853915,12.6332478 237.294456,12.0085097 239.030328,12.0000985 C240.080691,11.9945903 241.027442,12.2201302 241.874175,12.6723265 C242.720684,13.124895 243.417206,13.7623616 243.960668,14.5839819 Z" id="Stroke-5" stroke="#FFFFFE" stroke-width="0.5"></path>
                <path d="M237,18.0054104 L238.084684,18 L238.137917,28.9852816 C238.143275,29.907308 238.270893,29.7833817 239.181755,29.8206692 L244.994433,29.7964689 L245,30.9672252 L238.644423,30.9999067 C237.826874,31.0040741 237.06033,30.8729096 237.055041,29.7479219 L237,18.0054104 Z" id="Fill-6" fill="#FFFFFE"></path>
                <path d="M237,18.0054104 L238.084684,18 L238.137917,28.9852816 C238.143275,29.907308 238.270893,29.7833817 239.181755,29.8206692 L244.994433,29.7964689 L245,30.9672252 L238.644423,30.9999067 C237.826874,31.0040741 237.06033,30.8729096 237.055041,29.7479219 L237,18.0054104 Z" id="Stroke-7" stroke="#FFFFFE" stroke-width="0.5"></path>
                <path d="M263.032095,10 L263,4.01075007 L265.348758,4.00011555 C265.938982,3.99719627 266.368953,4.0496043 266.636587,4.15574097 C266.905934,4.26194714 267.120398,4.45190885 267.282736,4.72597361 C267.44485,5.00142851 267.527359,5.31469502 267.529295,5.66876195 C267.531827,6.11895659 267.412978,6.49033068 267.171706,6.78392682 C266.93021,7.07828752 266.56845,7.26387031 266.085458,7.34269086 C266.326954,7.49358982 266.525557,7.65991926 266.682161,7.8419572 C266.840328,8.02378663 267.05241,8.34754865 267.319895,8.81227018 L268,9.97734083 L266.666597,9.98345741 L265.859973,8.67930394 C265.571041,8.21632008 265.372587,7.92453112 265.265355,7.80393706 C265.159165,7.68410758 265.046869,7.60139465 264.928467,7.55725792 C264.808352,7.51291267 264.620696,7.49164363 264.363636,7.49282525 L264.137332,7.49358982 L264.15081,9.99485651 L263.032095,10 Z M264.132268,6.54016696 L264.957435,6.5364136 C265.492255,6.53405037 265.825197,6.50749883 265.95879,6.45780156 C266.090969,6.40879937 266.195818,6.32323667 266.269689,6.20271212 C266.344901,6.0824656 266.381389,5.93177516 266.38057,5.75189192 C266.379304,5.54955803 266.32822,5.38816357 266.22836,5.2632601 C266.128947,5.13974676 265.988353,5.06231634 265.808293,5.03076032 C265.716922,5.01755405 265.445639,5.01206302 264.99437,5.01400921 L264.124226,5.01797109 L264.132268,6.54016696 Z" id="Fill-8" fill="#29317C"></path>
                <path d="M265.472443,1.00006823 C268.509745,0.9850969 270.985029,3.43583239 270.99993,6.47237465 C271.015116,9.50977242 268.564499,11.9845333 265.52677,11.9999324 C262.490324,12.0148325 260.01504,9.56416825 260.000068,6.52655661 C259.985167,3.49001435 262.435783,1.01525344 265.472443,1.00006823 Z" id="Stroke-9" stroke="#29317C" stroke-width="0.5"></path>
            </g>
        </g>
    </g>
</svg>