<?xml version="1.0" encoding="UTF-8"?>
<svg width="414px" height="72px" viewBox="0 0 414 72" version="1.1" xmlns="http://www.w3.org/2000/svg" xmlns:xlink="http://www.w3.org/1999/xlink">
    <!-- Generator: Sketch 48.2 (47327) - http://www.bohemiancoding.com/sketch -->
    <title>Artboard 3</title>
    <desc>Created with Sketch.</desc>
    <defs></defs>
    <g id="Libra-Clips" stroke="none" stroke-width="1" fill="none" fill-rule="evenodd">
        <g id="Artboard-3">
            <g id="Libraclips-Logo-Copy">
                <path d="M342.843606,2 L387.156394,2 C388.721348,2 390,3.28341228 390,4.85443821 L390,60.1448976 C390,61.7161449 388.721348,63 387.156394,63 L342.843606,63 C341.278652,63 340,61.7161449 340,60.1448976 L340,4.85443821 C340,3.28341228 341.278652,2 342.843606,2" id="Fill-1" fill="#29317C"></path>
                <path d="M12.4799304,54.1786206 L15.933238,55.3776342 C15.7561566,56.3820189 15.5863708,57.1876384 15.422775,57.7902475 C15.2598425,58.3965575 15.0298136,59.1108496 14.730367,59.9285517 L16.3950644,61.7191802 C16.6008856,61.9227349 16.8609807,62.1665652 17.1818716,62.4523038 L14.8277507,66.7711472 C14.3931165,66.4117153 13.9401331,65.992632 13.4757643,65.5166188 C13.0066424,65.0339655 12.5868203,64.6266383 12.2145294,64.290392 C11.4534775,65.0886096 10.6902148,65.6757615 9.92684162,66.0408538 C8.86844335,66.5481078 7.66269835,66.8057624 6.31192792,66.8125113 C4.19380492,66.8227434 2.6145531,66.1358823 1.57560946,64.7513836 C0.537218508,63.3671026 0.0105064694,61.682388 0.000115927581,59.6977838 C-0.00673740849,58.2744247 0.290277334,56.9241058 0.889944241,55.6467183 C1.49126921,54.3727052 2.47980767,53.2941917 3.85533855,52.4117221 C3.27291552,51.3040361 2.86834761,50.3490705 2.64937247,49.5338719 C2.42752335,48.716714 2.31499599,47.8888885 2.31101664,47.0471299 C2.30217362,45.2673867 2.7239854,43.8011396 3.57656252,42.6458849 C4.4325663,41.4854052 5.73226833,40.9058729 7.48163763,40.8976001 C9.26858974,40.8888919 10.5807825,41.4334824 11.4258431,42.5199422 C12.2671454,43.6141305 12.6908363,44.9209082 12.6980212,46.4488749 C12.7029954,47.3010834 12.5815145,48.1265142 12.3263935,48.9139553 C12.0744782,49.7025938 11.7704996,50.3416685 11.4126891,50.8331389 C11.0507887,51.3253712 10.4079016,52.0588213 9.4838066,53.0319653 C10.2590073,54.247089 11.0714593,55.3776342 11.9159671,56.4227298 C12.1359371,55.7151867 12.3241828,54.9669326 12.4799304,54.1786206 Z M7.38546985,49.8063305 C7.95285975,49.3154044 8.38937305,48.7806106 8.69921016,48.2008606 C9.00506792,47.6281861 9.15860475,47.0780441 9.15606239,46.5657828 C9.15363056,46.0334926 9.02076427,45.5793588 8.76133234,45.2140488 C8.50024234,44.8415546 8.14055273,44.6555251 7.68557965,44.6577022 C7.23779151,44.6598792 6.87312771,44.873013 6.59390953,45.2800136 C6.31380706,45.6919126 6.17596657,46.1779403 6.17850894,46.7358109 C6.18193561,47.4442248 6.58396114,48.4684208 7.38546985,49.8063305 Z M5.84346923,55.9028489 C5.24059673,56.5788247 4.84056087,57.1570508 4.64723047,57.6381801 C4.44881534,58.1176767 4.35198434,58.6252572 4.35386348,59.1627723 C4.3586166,59.991251 4.59240379,60.7323208 5.05047193,61.382172 C5.50820845,62.029193 6.10268009,62.3544451 6.83023909,62.3507441 C7.61793059,62.3467166 8.49991073,61.857641 9.47850079,60.8838439 C8.53406687,59.7440463 7.32434251,58.0864359 5.84346923,55.9028489 Z M40.1781303,41.0901607 L45.5051621,41.0641449 L55.8173327,66.1626601 L50.2248999,66.1901998 L47.9990027,60.2112425 L37.6122191,60.261859 L35.5106768,66.2613896 L30.2288549,66.2870788 L40.1781303,41.0901607 Z M42.6669967,46.0866128 L39.2083832,55.7710281 L46.3323155,55.7365218 L42.6669967,46.0866128 Z M61.7669127,66.1337052 L56.9500123,66.1571086 L56.8237782,41.00863 L61.6406787,40.9855532 L61.7669127,66.1337052 Z M70.4886671,66.0911438 L65.6717667,66.1148737 L65.5457538,40.9663951 L70.3626542,40.9428829 L70.4886671,66.0911438 Z M79.3221752,66.0482558 L74.4623861,66.0716592 L74.3698661,47.6145795 L79.2297657,47.590523 L79.3221752,66.0482558 Z M79.2187119,45.4877047 L74.3592545,45.5114346 L74.3360416,40.9238337 L79.1956095,40.8999949 L79.2187119,45.4877047 Z M91.1289257,65.9905638 C90.4918971,65.9936117 89.8753179,65.9611736 89.2739929,65.8948822 C88.6745471,65.8266315 88.087371,65.7130981 87.5077114,65.5521048 C86.9161137,65.3906761 86.3640885,65.1500026 85.8510832,64.8262743 C85.3397359,64.5008045 84.8669662,64.0820478 84.4370852,63.5722902 C84.0647943,63.1770457 83.7464458,62.7404371 83.4863506,62.2631176 C83.2244869,61.7861247 83.0113702,61.2901913 82.8453426,60.7789098 C82.6798677,60.2401973 82.5533021,59.7100842 82.4614453,59.1868288 C82.369699,58.6597636 82.3073557,58.1173501 82.2750787,57.5579556 C82.2747471,57.5103869 82.2744155,57.458573 82.2737523,57.4005545 C82.2737523,57.3415563 82.2734207,57.2771154 82.2734207,57.2076673 C82.2731996,57.1605341 82.2731996,57.1082847 82.272868,57.0490688 C82.2718731,56.9913768 82.2715415,56.9274802 82.2713205,56.8562905 C82.2713205,56.8090484 82.2709888,56.7683374 82.2709888,56.733178 C82.2706572,56.6992159 82.2703256,56.658505 82.2703256,56.6109363 C82.269994,56.5877507 82.269994,56.5520469 82.2694413,56.5078527 C82.2694413,56.4609372 82.2694413,56.4254511 82.2691097,56.4035717 C82.2687781,56.3322732 82.2681149,56.2560762 82.2677832,56.1753074 C82.2675622,56.0925793 82.2756314,56.0046262 82.2887854,55.9111217 C82.315425,55.3736066 82.3765523,54.8542699 82.4702883,54.3516966 C82.5635821,53.8493409 82.689595,53.3417604 82.8506484,52.8267778 C83.0104859,52.3108155 83.2163071,51.8260941 83.4660117,51.3701097 C83.7141688,50.9124926 84.0143891,50.4866604 84.3693256,50.0880415 C84.794564,49.5702288 85.2626911,49.1502747 85.7709434,48.8197976 C86.2807431,48.4893205 86.8303365,48.2418981 87.4202761,48.0747002 C87.9978354,47.9080466 88.5843484,47.7834102 89.1827993,47.6994847 C89.7829084,47.6155591 90.399156,47.5713649 91.035853,47.568317 L97.8045172,47.5000663 L97.8239718,51.3528021 L91.6986369,51.3824101 C91.0469068,51.4095144 90.46371,51.4762412 89.9473885,51.58357 C89.4294089,51.6910077 88.9791889,51.8403538 88.5952916,52.0282337 C88.19614,52.2161136 87.8993464,52.5502917 87.7003785,53.0294617 C87.5039531,53.5108087 87.3990528,54.1350795 87.3893255,54.9061927 L97.8412157,54.8212875 L97.8603387,58.672064 L87.4084485,58.7230071 C87.4262451,59.5156731 87.5334666,60.159102 87.7286762,60.6483953 C87.9232225,61.1374709 88.2067516,61.4748057 88.5768318,61.6605085 C88.9481279,61.8224815 89.3918261,61.9487507 89.9103584,62.0390986 C90.4273431,62.1298818 91.0271205,62.1742937 91.7082537,62.1705927 L97.8779142,62.1054988 L97.8967056,65.9581257 L91.1289257,65.9905638 Z M117.094669,65.863968 L108.196275,65.9078357 C106.893478,65.9140403 105.728521,65.7267047 104.696652,65.3462641 C103.666772,64.9676741 102.779708,64.3921694 102.035789,63.6266077 C101.307898,62.8595221 100.740177,61.9394983 100.334725,60.8663186 C99.9311516,59.7946628 99.6879687,58.5820427 99.6074973,57.2286759 C99.5736728,56.6198622 99.5861635,56.0145318 99.6435326,55.4060447 C99.6983593,54.8006055 99.8001645,54.2032214 99.9449688,53.6175933 C100.075293,53.0119364 100.266744,52.4379556 100.523081,51.9004405 C100.779307,51.3620546 101.091466,50.844895 101.459556,50.354622 C101.914529,49.7436313 102.3999,49.2459563 102.916001,48.8584403 C103.432985,48.4699447 103.985453,48.1937852 104.577271,48.026805 C105.182023,47.8360949 105.803355,47.6997024 106.439389,47.6155591 C107.073986,47.5309805 107.732901,47.4871128 108.415029,47.484065 L112.363656,47.4294209 L112.330716,40.7386751 L116.968766,40.7164691 L117.094669,65.863968 Z M112.436942,61.9295927 L112.384326,51.4222502 C112.323862,51.4227945 112.265941,51.4278017 112.206029,51.440102 C112.147113,51.4518582 112.089522,51.4592601 112.029058,51.4595867 C111.999545,51.4595867 111.970694,51.4598044 111.940076,51.4598044 C111.910894,51.460131 111.881491,51.460131 111.851977,51.4604575 C111.747961,51.4604575 111.659973,51.4611106 111.584365,51.4614372 C111.510416,51.4619815 111.436798,51.462308 111.362848,51.4626346 C111.246009,51.4632877 111.13105,51.4635054 111.019407,51.4641585 C110.908206,51.4648116 110.801648,51.4653559 110.697079,51.466009 C110.578583,51.4663356 110.463292,51.4666621 110.35397,51.467533 C110.243654,51.4681861 110.135548,51.4685126 110.032748,51.4691657 C109.928069,51.46971 109.828474,51.46971 109.732306,51.4706897 C109.636139,51.4710162 109.535218,51.4715605 109.431533,51.4718871 C109.329286,51.4944196 109.229692,51.5070465 109.133856,51.5073731 C109.037024,51.5076996 108.937651,51.5080262 108.832972,51.5085705 C108.729951,51.5095501 108.628698,51.5098767 108.532531,51.510421 C108.438242,51.510421 108.345501,51.5228302 108.256186,51.5472132 C108.153386,51.5475398 108.053792,51.5546152 107.956298,51.5650651 C107.86013,51.577692 107.760756,51.585094 107.657735,51.5857471 C107.481317,51.6098036 107.305783,51.6446364 107.136329,51.6925317 C106.966212,51.7409712 106.800405,51.8109635 106.639683,51.9063186 C106.476751,52.0001497 106.324761,52.1041041 106.18471,52.2213385 C106.044327,52.3388996 105.90704,52.4562429 105.776163,52.5750013 C105.540165,52.8097968 105.342745,53.0739825 105.180807,53.3654903 C105.01909,53.6571069 104.886887,53.9672285 104.786961,54.2955285 C104.743409,54.4600051 104.699194,54.6241551 104.655974,54.7879786 C104.612422,54.9506046 104.583904,55.1011481 104.568539,55.2415682 C104.54002,55.4057182 104.515591,55.5695416 104.493926,55.7340182 C104.472592,55.8963177 104.461317,56.0604677 104.462312,56.2242912 C104.462975,56.3171426 104.462975,56.4119534 104.463196,56.5036074 C104.464191,56.5961323 104.464854,56.6788604 104.464854,56.7481997 C104.465076,56.84116 104.46607,56.9293307 104.46607,57.0120588 C104.466402,57.093263 104.466402,57.1691334 104.466955,57.240432 C104.504648,58.4755847 104.689467,59.4502526 105.026275,60.1618233 C105.362199,60.8702373 105.849449,61.319255 106.48681,61.5022366 C107.124391,61.6864155 107.824095,61.8240054 108.584815,61.9126116 C109.349072,62.0039391 110.181642,62.0335471 111.082745,62.005463 C111.127513,62.0051365 111.180571,62.0051365 111.238825,62.0048099 C111.299289,62.0045922 111.349362,61.9937069 111.393246,61.9703036 C111.451831,61.969977 111.512074,61.9696505 111.571875,61.9691062 C111.630791,61.9687797 111.690592,61.9687797 111.748624,61.9684531 C111.809088,61.9681265 111.86701,61.9681265 111.927143,61.9678 C111.986059,61.9674734 112.045307,61.9672557 112.104224,61.9669292 C112.148992,61.966276 112.200392,61.9659495 112.258424,61.9656229 C112.31922,61.9656229 112.377142,61.9656229 112.436942,61.9654052 L112.436942,61.9295927 Z M144.199723,44.9619457 C143.267559,44.9902475 142.460192,45.1343686 141.771763,45.3945267 C141.085877,45.6549026 140.52125,46.0430717 140.079431,46.55751 C139.623795,47.0752139 139.267864,47.6885994 139.01219,48.403218 C138.758396,49.1151152 138.609833,49.940546 138.570039,50.8738498 L152.485628,50.7705485 L152.507846,55.1487167 L138.547158,55.216532 C138.5497,55.6611957 138.570371,56.0990016 138.610165,56.5295144 C138.648742,56.9627485 138.720813,57.3761714 138.827924,57.7710894 C138.931387,58.1916966 139.082381,58.5881384 139.276707,58.9624832 C139.47059,59.3333447 139.717863,59.6823267 140.014877,60.0084497 C140.266793,60.3118224 140.542805,60.5672999 140.839267,60.7733583 C141.135066,60.9832265 141.462479,61.1223403 141.817747,61.1899379 C142.158424,61.259386 142.510265,61.309676 142.872497,61.3439646 C143.234729,61.3754231 143.600941,61.3924041 143.971352,61.3908802 C143.987049,61.3908802 143.993902,61.3908802 143.993902,61.3908802 C143.993902,61.3908802 144.001087,61.3908802 144.015899,61.3908802 C144.031817,61.3905536 144.045302,61.3905536 144.060999,61.3905536 C144.076363,61.3905536 144.089849,61.3902271 144.105435,61.3902271 C144.11892,61.3902271 144.134617,61.3902271 144.149981,61.3895739 C144.16402,61.3895739 144.179716,61.3895739 144.194749,61.3895739 C144.208898,61.3895739 144.223931,61.3892474 144.237638,61.3892474 C144.252781,61.3892474 144.268367,61.3892474 144.282184,61.3890297 L152.538907,61.313377 L152.560462,65.6918718 L144.060335,65.7329093 C143.38075,65.7366103 142.71266,65.7107033 142.061925,65.6548618 C141.411079,65.6005443 140.766865,65.5036653 140.129284,65.3669462 C139.493139,65.2530861 138.88684,65.0447419 138.306296,64.745179 C137.728184,64.4456161 137.156262,64.0608215 136.592631,63.5973263 C135.923988,63.0409797 135.354609,62.4131168 134.885597,61.7154792 C134.41526,61.0162089 134.045511,60.2590288 133.775136,59.4419798 C133.504098,58.6271077 133.297282,57.7930776 133.151593,56.9417399 C133.00712,56.0904022 132.918137,55.2323157 132.882765,54.3702015 C132.882765,54.2754996 132.879007,54.1825393 132.87149,54.0896879 C132.863974,53.994986 132.858336,53.9021345 132.858005,53.8091742 C132.858005,53.7379845 132.857673,53.6571069 132.856678,53.562405 C132.856126,53.469227 132.856126,53.3781172 132.855794,53.2852658 C132.854246,53.0977124 132.862095,52.9165813 132.875249,52.7406752 C132.889287,52.5647691 132.90432,52.3957207 132.917474,52.2315707 C133.02558,50.248164 133.331106,48.5242623 133.8356,47.0632401 C134.337883,45.5997143 135.039134,44.3997211 135.937142,43.4601038 C136.83515,42.5230989 137.961308,41.8158823 139.322359,41.344332 C140.679098,40.8695161 142.262772,40.628516 144.068515,40.6195901 L152.434228,40.5436109 L152.456777,44.9217791 L144.199723,44.9619457 Z M156.397556,47.2149809 L165.117431,47.172746 C166.257296,47.1905978 167.279106,47.3143635 168.183747,47.5414304 C169.087392,47.7701301 169.865025,48.1181325 170.51996,48.5831516 C171.157542,49.0451229 171.641365,49.7273033 171.971873,50.623053 C172.302491,51.5228302 172.469845,52.6243116 172.475814,53.9304363 L172.53462,65.5943397 L167.896349,65.6171987 L167.840306,54.5145404 C167.8371,53.8836296 167.787027,53.351666 167.688648,52.9211532 C167.589938,52.4904227 167.437949,52.1568977 167.228701,51.924497 C167.035371,51.717459 166.730397,51.5549417 166.316544,51.4404286 C165.902028,51.3255889 165.383717,51.2688766 164.762053,51.272251 L161.033396,51.2546169 L161.105466,65.6501811 L156.489745,65.6727137 L156.397556,47.2149809 Z M174.639037,47.126157 L177.900893,47.1103733 L177.866737,40.4199541 L182.484669,40.3974215 L182.518494,47.0881674 L187.422166,47.0637843 L187.440626,50.740614 L182.53629,50.7646705 L182.573984,58.2259852 C182.563262,59.1592891 182.659761,59.8940454 182.861603,60.4305808 C183.064882,60.9653746 183.372287,61.3037979 183.788461,61.442041 C184.18695,61.6040139 184.6742,61.7182005 185.244132,61.7848184 C185.814727,61.8530691 186.461483,61.8838745 187.185947,61.8805 C187.201533,61.8805 187.208497,61.8801735 187.208497,61.8801735 C187.208497,61.8801735 187.215019,61.8801735 187.230715,61.8801735 C187.24608,61.8801735 187.260118,61.8801735 187.275262,61.8796292 C187.2893,61.8796292 187.304665,61.8796292 187.32003,61.8796292 C187.333847,61.8796292 187.349212,61.8793027 187.364466,61.8793027 C187.377951,61.8793027 187.393648,61.8793027 187.407465,61.8789761 C187.423051,61.8789761 187.438747,61.8789761 187.452564,61.8789761 C187.467929,61.8786495 187.482962,61.8786495 187.496779,61.8786495 L187.514576,65.5218437 L183.275456,65.5421992 C182.403203,65.5465533 181.633308,65.4215903 180.966545,65.168181 C180.298787,64.9142274 179.749525,64.5332426 179.317765,64.019784 C178.856491,63.5081759 178.517472,62.9042606 178.299381,62.2042283 C178.080738,61.5052845 177.969205,60.7097882 177.964452,59.8239442 L177.919021,50.787203 L174.657828,50.8029866 L174.639037,47.126157 Z M198.056775,65.4700298 C197.421294,65.4734042 196.803389,65.4406395 196.203722,65.3743482 C195.604608,65.306424 195.014889,65.1922374 194.436777,65.0315707 C193.844295,64.870142 193.292159,64.6294685 192.78048,64.3060668 C192.269465,63.980597 191.796584,63.5618403 191.364603,63.0517561 C190.992312,62.656185 190.675843,62.2199031 190.416079,61.7429101 C190.152889,61.2655906 189.939551,60.7696573 189.774961,60.258158 C189.609597,59.7199898 189.481373,59.1898767 189.389627,58.6662948 C189.297438,58.1392295 189.236421,57.5968161 189.204365,57.0374215 C189.203813,56.990506 189.203813,56.9377124 189.203481,56.880347 C189.203481,56.8210222 189.203481,56.7569079 189.203149,56.6877864 C189.202486,56.6402177 189.202265,56.5877507 189.201934,56.5288613 C189.201934,56.4711693 189.201602,56.4069462 189.200939,56.3359741 C189.200386,56.2885143 189.200386,56.2481299 189.200054,56.2126439 C189.200054,56.1786819 189.200054,56.1379709 189.199723,56.0907288 C189.199723,56.0672166 189.199723,56.0315129 189.199723,55.9879718 C189.199391,55.9404031 189.19906,55.9046994 189.19906,55.8827111 C189.198175,55.8120657 189.197844,55.7358687 189.197512,55.6546645 C189.19718,55.5720452 189.203481,55.4840922 189.218846,55.3905876 C189.245154,54.8533991 189.305618,54.3337359 189.399354,53.8314891 C189.493311,53.3288069 189.619324,52.8212263 189.778166,52.3065703 C189.938557,51.7900638 190.143825,51.3058866 190.394193,50.8497933 C190.642018,50.3922851 190.944007,49.9664529 191.297175,49.5675074 C191.72363,49.0496947 192.192088,48.6297406 192.700009,48.2995901 C193.208261,47.9687865 193.758076,47.7213641 194.350005,47.5543839 C194.925575,47.3875125 195.514077,47.2630938 196.11286,47.1789506 C196.711311,47.0946985 197.328553,47.051484 197.964034,47.0484361 L204.734246,46.9798588 L204.753701,50.8325946 L198.628587,50.861876 C197.976525,50.8889804 197.393439,50.9559248 196.874907,51.063036 C196.357259,51.1706914 195.908255,51.3198197 195.52281,51.5076996 C195.12399,51.6955796 194.826864,52.0297576 194.630771,52.5095807 C194.431803,52.9902747 194.328339,53.6145455 194.316844,54.3858764 L204.770945,54.3007535 L204.790289,58.1515299 L194.335856,58.2021464 C194.355974,58.9954656 194.461869,59.6387856 194.656747,60.1281878 C194.851072,60.6175899 195.134933,60.9542716 195.504681,61.1399745 C195.875646,61.3019474 196.319897,61.4284344 196.838208,61.5188911 C197.357403,61.6092389 197.956518,61.6537597 198.638314,61.6506029 L204.807532,61.5849647 L204.826987,65.4372651 L198.056775,65.4700298 Z M207.684607,46.965708 L215.474418,46.9277183 C216.717415,46.9453525 217.706616,47.0974198 218.43926,47.3846824 C219.174004,47.6735777 219.639589,48.1209627 219.83513,48.7266196 C220.043493,49.3091998 220.195483,50.0046603 220.288224,50.8087558 C220.381297,51.6135045 220.43137,52.5188332 220.43546,53.523218 C220.436676,53.616396 220.437008,53.7089208 220.437339,53.8039493 C220.437671,53.896583 220.438334,53.989761 220.438555,54.084463 C220.438555,54.1298546 220.438887,54.1773144 220.43955,54.2248831 C220.43955,54.2701658 220.440213,54.3174079 220.440434,54.3649766 C220.440766,54.4324653 220.440766,54.4899396 220.440766,54.5373994 C220.440766,54.5849681 220.441097,54.6305774 220.441761,54.677493 L216.002678,54.6638864 C216.002678,54.6182771 216.001794,54.5587346 216.001462,54.4896131 C216.001131,54.420165 216.001131,54.3510435 216.000799,54.2800714 C216.000246,54.2346798 216.000246,54.1989761 216.000246,54.1751373 C215.999915,54.151734 215.999915,54.1159214 215.999251,54.0705298 C215.999251,54.0467999 215.999251,54.0181716 215.99892,53.9826856 C215.99892,53.9471996 215.998699,53.9184625 215.998699,53.8947325 C215.994609,53.0529739 215.958574,52.3836381 215.888935,51.8804116 C215.819407,51.3799065 215.717933,51.059335 215.583519,50.9198945 C215.449105,50.7801276 215.158944,50.6767174 214.704855,50.6079224 C214.254635,50.540978 213.62855,50.5085398 212.829915,50.5125674 C212.770004,50.5125674 212.718383,50.512894 212.673836,50.512894 C212.630616,50.5132205 212.593364,50.5135471 212.563519,50.5135471 C212.549813,50.5135471 212.530911,50.5137648 212.509024,50.5137648 C212.486474,50.5137648 212.467351,50.5140913 212.451987,50.5140913 C212.422915,50.5140913 212.397492,50.5144179 212.374942,50.5144179 C212.352945,50.5144179 212.334154,50.5147445 212.320115,50.5147445 L212.394618,65.4005817 L207.777017,65.4231142 L207.684607,46.965708 Z M223.353544,46.8891845 L232.276367,46.8456433 C233.578943,46.8629509 234.744231,47.0653083 235.774442,47.4578314 C236.804432,47.8512254 237.684312,48.4304312 238.414635,49.1975168 C239.156674,49.987135 239.730917,50.9140165 240.136701,51.973263 C240.539721,53.0331627 240.775609,54.2420818 240.843037,55.5961017 C240.875314,56.2249443 240.862713,56.8383298 240.807886,57.4335369 C240.750848,58.0293971 240.657223,58.6328769 240.526567,59.2386427 C240.382095,59.8245973 240.185338,60.3901964 239.937733,60.940665 C239.688029,61.4914602 239.380071,61.9999116 239.013417,62.4698291 C238.572261,63.0789693 238.093523,63.5763177 237.578638,63.9644868 C237.060769,64.3521116 236.500785,64.6288154 235.893823,64.7961221 C235.304436,64.961143 234.686862,65.0874122 234.043311,65.1715554 C233.400314,65.2579845 232.746373,65.3015256 232.078725,65.3045735 L228.086215,65.3240582 L228.119045,71.9774675 L223.479889,72 L223.353544,46.8891845 Z M228.013481,50.8590458 L228.065765,61.3667149 C228.095611,61.3664972 228.128109,61.3717221 228.16547,61.3831516 C228.201506,61.3947989 228.243178,61.4016566 228.287615,61.40133 C228.316465,61.4006769 228.349405,61.4006769 228.38732,61.4006769 C228.423686,61.4006769 228.457843,61.4003504 228.486914,61.4003504 C228.531461,61.4001327 228.579324,61.3998061 228.631387,61.3998061 C228.682787,61.3994795 228.739161,61.399153 228.797746,61.3988264 C228.826596,61.3988264 228.853899,61.3984999 228.874791,61.3984999 C228.897451,61.3979556 228.924643,61.3979556 228.953494,61.3979556 C230.018192,61.4164606 230.98385,61.3643201 231.848696,61.2436023 C232.713875,61.1226669 233.47769,60.9430598 234.142685,60.7070669 C234.80779,60.4448405 235.297251,59.8964402 235.611178,59.052831 C235.923889,58.2117255 236.062393,57.0546203 236.026136,55.5843456 C235.990985,54.3448388 235.803624,53.3775729 235.4677,52.6789557 C235.130228,51.9791411 234.644858,51.5388315 234.006613,51.35585 C233.371242,51.1716711 232.671539,51.0411566 231.908829,50.9618029 C231.144682,50.8844085 230.320513,50.8479429 229.432895,50.852297 C229.343913,50.8529501 229.257693,50.858175 229.179433,50.8701488 C229.096971,50.8828846 229.018932,50.8896335 228.945645,50.88996 C228.901209,50.8906131 228.859537,50.8908309 228.822175,50.8908309 C228.785808,50.8911574 228.744467,50.891484 228.700031,50.891484 C228.641998,50.8918105 228.581534,50.8921371 228.523281,50.8921371 C228.46348,50.8924636 228.41208,50.8926814 228.36687,50.8926814 C228.308948,50.8930079 228.250032,50.893661 228.190231,50.8939876 C228.132199,50.8943141 228.071403,50.8945318 228.013481,50.8948584 L228.013481,50.8590458 Z M243.662079,46.7901284 L251.450011,46.7521388 C252.694555,46.7700995 253.682541,46.9224934 254.415074,47.2097559 C255.149597,47.4985424 255.615182,47.9457097 255.810723,48.5516932 C256.019639,49.1339468 256.171076,49.8297338 256.263817,50.6338294 C256.356889,51.4382516 256.406631,52.3442334 256.411053,53.347965 C256.412269,53.4408164 256.4126,53.5343209 256.412932,53.6286963 C256.413264,53.7215478 256.414148,53.814508 256.414148,53.9088834 C256.41448,53.9551458 256.41448,54.002388 256.41448,54.0498478 C256.415143,54.0952394 256.415474,54.1428081 256.416027,54.1899413 C256.416359,54.2575389 256.41669,54.3149043 256.41669,54.3621464 C256.41669,54.4097151 256.417022,54.4549979 256.417354,54.5025665 L251.977939,54.4886334 C251.977718,54.4430241 251.977718,54.3838081 251.977055,54.3143601 C251.977055,54.2452385 251.976723,54.176117 251.976392,54.1048184 C251.975839,54.0592091 251.975839,54.0237231 251.975176,54.0002109 C251.975176,53.976481 251.974844,53.940995 251.974844,53.8956034 C251.974844,53.8715469 251.974844,53.8428098 251.974513,53.8073238 C251.974513,53.7718377 251.974513,53.7432095 251.974513,53.7196973 C251.970202,52.8777209 251.934166,52.2083851 251.864196,51.7051586 C251.794999,51.2053066 251.694079,50.8844085 251.559333,50.7449681 C251.424919,50.6052011 251.134537,50.501791 250.680448,50.432996 C250.23056,50.365725 249.604143,50.3336134 248.805508,50.3369878 C248.745928,50.3373144 248.694196,50.337641 248.64976,50.3379675 C248.606209,50.3379675 248.570726,50.3382941 248.539112,50.3382941 C248.525958,50.3388383 248.506835,50.3388383 248.484617,50.3388383 C248.462399,50.3391649 248.443608,50.3391649 248.42979,50.3391649 C248.398729,50.3394915 248.373085,50.3394915 248.350866,50.3394915 C248.328206,50.339818 248.309746,50.339818 248.295929,50.339818 L248.370211,65.2253287 L243.75482,65.2478612 L243.662079,46.7901284 Z M264.260444,65.1484786 L259.400544,65.1715554 L259.308467,46.714258 L264.167924,46.6904193 L264.260444,65.1484786 Z M264.157644,44.587601 L259.298076,44.6116575 L259.274642,40.0234034 L264.134431,40 L264.157644,44.587601 Z M267.969978,61.2772379 L277.712548,61.2304312 C277.728134,61.229778 277.735429,61.2368535 277.735429,61.2486096 C277.735429,61.2602568 277.742614,61.2655906 277.757979,61.2652641 C277.771464,61.2652641 277.787382,61.2652641 277.800536,61.2652641 C277.816232,61.2652641 277.829386,61.2649375 277.845083,61.2649375 C277.861,61.2649375 277.867632,61.2649375 277.867632,61.2649375 C277.867632,61.2649375 277.874486,61.2649375 277.890182,61.2646109 C277.903999,61.2646109 277.919364,61.2646109 277.934397,61.2646109 C277.948104,61.2646109 277.9638,61.2642844 277.978833,61.2642844 C278.24545,61.2627604 278.507756,61.226077 278.764977,61.1557581 C279.023856,61.0834799 279.272013,60.9891045 279.508564,60.8712169 C279.744783,60.7536559 279.92087,60.576879 280.037819,60.3429543 C280.15532,60.1075057 280.213573,59.8060924 280.211694,59.4312033 C280.210368,59.1049715 280.148688,58.8242402 280.028975,58.5899889 C279.909926,58.359221 279.745446,58.183968 279.538962,58.0685841 C279.301416,57.9528735 279.064534,57.8612195 278.826436,57.7912271 C278.589554,57.7229764 278.345487,57.6770406 278.093571,57.654508 C278.064058,57.6548346 278.031117,57.6548346 277.993866,57.6550523 C277.955952,57.6553789 277.923675,57.6553789 277.894272,57.6557054 C277.863211,57.6557054 277.830934,57.656032 277.793019,57.656032 C277.758863,57.656032 277.723823,57.656032 277.694972,57.6563585 L273.698704,57.6420988 C272.766871,57.6686589 271.930543,57.6156476 271.192041,57.4786019 C270.449449,57.3418828 269.813304,57.1336474 269.279739,56.8590118 C268.744184,56.5806752 268.334973,56.0860481 268.049897,55.3757837 C267.765041,54.6638864 267.619684,53.7363517 267.614378,52.5935063 C267.594924,51.5188026 267.722484,50.6017178 267.999713,49.8396394 C268.277383,49.0814797 268.696874,48.4773467 269.257521,48.0318122 C269.816731,47.5839918 270.472883,47.2482898 271.22675,47.0230734 C271.980617,46.7993809 272.830099,46.6836704 273.777628,46.6793163 L283.741715,46.5953908 L283.76117,50.4474734 L275.572096,50.4876401 C275.542693,50.51137 275.509753,50.5230173 275.472502,50.5236704 C275.436135,50.5239969 275.401647,50.5239969 275.372797,50.5239969 C275.357432,50.5243235 275.343394,50.5243235 275.328029,50.5243235 C275.312996,50.5243235 275.298294,50.5246501 275.283261,50.5246501 C275.267897,50.5246501 275.254079,50.5246501 275.238383,50.5248678 C275.225229,50.5248678 275.209643,50.5248678 275.194278,50.5248678 C275.165097,50.5248678 275.138789,50.5248678 275.117123,50.5248678 C275.094574,50.5251943 275.068929,50.5251943 275.039415,50.5255209 C274.979614,50.5258474 274.926335,50.5258474 274.873056,50.526174 C274.821988,50.5268271 274.773793,50.5270448 274.728583,50.5273714 C274.670662,50.5273714 274.600138,50.5280245 274.517456,50.5280245 C274.437206,50.5283511 274.351097,50.5286776 274.262335,50.5295484 C274.070331,50.5524075 273.874459,50.5887644 273.675822,50.6372038 C273.474644,50.6850991 273.286288,50.7436619 273.11208,50.8156136 C272.917866,50.9093358 272.767755,51.0337546 272.657107,51.1846245 C272.546238,51.3354945 272.462892,51.5169521 272.404307,51.728562 C272.302723,52.1498223 272.296202,52.4996751 272.387064,52.7786649 C272.477594,53.0585254 272.641853,53.2689378 272.879288,53.4083783 C273.116833,53.5694804 273.380355,53.6863883 273.668637,53.7543124 C273.957472,53.8237605 274.264878,53.8564164 274.591074,53.8545659 L278.784432,53.8005749 C279.600089,53.818209 280.350751,53.9265176 281.038516,54.122126 C281.727608,54.3149043 282.355462,54.6093511 282.918873,55.005793 C283.468466,55.3766545 283.893373,55.8984948 284.192267,56.5751237 C284.490939,57.2496845 284.658183,58.0673867 284.691455,59.0238762 C284.692339,59.0472795 284.692339,59.0642606 284.692339,59.0760167 C284.692339,59.0880993 284.692339,59.0948482 284.692339,59.0948482 C284.692339,59.0948482 284.692339,59.0948482 284.692339,59.0948482 C284.692339,59.0948482 284.692339,59.0948482 284.692339,59.0948482 C284.692671,59.1167276 284.692671,59.1284837 284.692671,59.1284837 C284.692671,59.1284837 284.692671,59.1284837 284.692671,59.1284837 C284.696429,59.8776086 284.600261,60.5947308 284.404388,61.285293 C284.209179,61.9743312 283.904648,62.6250532 283.492563,63.2320163 C283.081805,63.8426805 282.575764,64.301495 281.980408,64.605412 C281.38262,64.9123769 280.698281,65.0679275 279.927502,65.0716285 L267.989101,65.1296471 L267.969978,61.2772379 Z M295.842054,64.9944519 C295.205357,64.9976086 294.588446,64.9648439 293.987784,64.8985526 C293.388007,64.8306285 292.80083,64.7164419 292.221503,64.5554486 C291.629573,64.3943465 291.077548,64.1533464 290.564874,63.8299447 C290.052643,63.5044749 289.580426,63.0860447 289.150545,62.5757428 C288.777591,62.1803895 288.461453,61.7437809 288.200142,61.2671146 C287.938167,60.7897951 287.72483,60.293644 287.559355,59.7825802 C287.392996,59.2438677 287.266762,58.7137546 287.174905,58.1901726 C287.082827,57.6631074 287.022363,57.1206939 286.988538,56.5612994 C286.988538,56.5137308 286.988207,56.4619168 286.987875,56.4042248 C286.987212,56.3450089 286.986549,56.2807858 286.986328,56.2116643 C286.986328,56.1644221 286.985996,56.1119551 286.985664,56.0527392 C286.985333,55.9953738 286.985001,55.930824 286.984669,55.8601786 C286.984669,55.8127188 286.984669,55.7722255 286.984448,55.7365218 C286.984448,55.7028863 286.983785,55.6621754 286.983122,55.6152598 C286.983122,55.5912033 286.98279,55.5557173 286.98279,55.5118496 C286.982569,55.4646075 286.982569,55.4289038 286.982569,55.4069156 C286.982569,55.3359435 286.982238,55.2600731 286.980911,55.178869 C286.98069,55.0959231 286.988759,55.0079701 287.002245,54.9151186 C287.030432,54.377277 287.090012,53.8579403 287.183085,53.3556935 C287.277373,52.8530113 287.403386,52.3454307 287.563445,51.8307747 C287.724498,51.3142682 287.929435,50.8297644 288.179471,50.3737801 C288.42796,49.9161629 288.729396,49.4903308 289.082785,49.0913853 C289.507692,48.5735726 289.976151,48.1539451 290.484403,47.8231414 C290.994424,47.4929909 291.543464,47.2452419 292.133183,47.0783706 C292.710963,46.911717 293.297145,46.786754 293.895927,46.7028285 C294.496589,46.618903 295.112947,46.5753619 295.749976,46.5726405 L302.517424,46.5037367 L302.536768,50.3561459 L296.412318,50.3860804 C295.761914,50.4129671 295.176506,50.4801293 294.660848,50.5872404 C294.1432,50.6946781 293.692317,50.8440242 293.308751,51.0315775 C292.909931,51.2194574 292.612806,51.5539621 292.413838,52.0334586 C292.217744,52.5144791 292.112402,53.1387499 292.102453,53.9098631 L302.554344,53.8249579 L302.573798,57.6755166 L292.121908,57.7263509 C292.139373,58.5193435 292.247147,59.1627723 292.442136,59.6523922 C292.636682,60.1414678 292.91988,60.4781495 293.28996,60.6638524 C293.661919,60.8261519 294.104954,60.9524211 294.624149,61.0430955 C295.14235,61.1334433 295.740912,61.1779641 296.421713,61.1748074 L302.590711,61.1088426 L302.610165,64.9614695 L295.842054,64.9944519 Z M305.277218,61.0961068 L315.020672,61.048647 C315.036037,61.048647 315.043222,61.0550693 315.043222,61.0668254 C315.043222,61.0785815 315.049854,61.0834799 315.064888,61.0834799 C315.080584,61.0834799 315.094291,61.0834799 315.108771,61.0834799 C315.123804,61.0834799 315.137842,61.0834799 315.152876,61.0834799 C315.168572,61.0831533 315.175204,61.0831533 315.175204,61.0831533 C315.175204,61.0831533 315.182389,61.0831533 315.197422,61.0831533 C315.212787,61.0831533 315.226604,61.0829356 315.24219,61.0829356 C315.256007,61.0829356 315.271704,61.0829356 315.2874,61.0829356 C315.55269,61.0810851 315.814996,61.0446194 316.074097,60.973974 C316.332976,60.901478 316.579806,60.8076469 316.815804,60.6897593 C317.052355,60.5721983 317.228442,60.3950948 317.34528,60.1614967 C317.462781,59.9258304 317.521698,59.6246347 317.519819,59.2494192 C317.51794,58.9232962 317.45626,58.6431091 317.336879,58.4086402 C317.216835,58.1772192 317.053571,58.0025104 316.846534,57.8867999 C316.608988,57.7717425 316.371443,57.6797619 316.134892,57.6097695 C315.899337,57.5415188 315.653611,57.495583 315.40048,57.4730504 C315.37163,57.4730504 315.339353,57.473377 315.300775,57.4737035 C315.265403,57.4737035 315.230584,57.4740301 315.201844,57.4740301 C315.172662,57.4740301 315.137842,57.4740301 315.101807,57.4742478 C315.066435,57.4742478 315.032279,57.4749009 315.003208,57.4749009 L311.007823,57.4607501 C310.075991,57.4869836 309.239662,57.4335369 308.499281,57.2968178 C307.75691,57.1602075 307.120545,56.9521898 306.586979,56.6772277 C306.051756,56.3995442 305.644093,55.9046994 305.359679,55.1939995 C305.073829,54.4822111 304.928804,53.5546764 304.922834,52.4120486 C304.902164,51.3370185 305.031935,50.4203691 305.309164,49.6585084 C305.586834,48.8994778 306.004114,48.2955625 306.565645,47.8500281 C307.124303,47.4026431 307.780123,47.0662879 308.535869,46.8412892 C309.28852,46.6179233 310.139218,46.5022128 311.0852,46.4979675 L321.04984,46.4137155 L321.069294,50.2663424 L312.881216,50.3058559 C312.850265,50.3295858 312.817657,50.3419951 312.779742,50.3419951 C312.744038,50.3422128 312.709551,50.3425393 312.680369,50.3425393 C312.664451,50.3425393 312.651297,50.3425393 312.635601,50.3428659 C312.621784,50.3428659 312.606751,50.3428659 312.591386,50.3428659 C312.577679,50.3428659 312.561983,50.3428659 312.54695,50.3428659 C312.532469,50.3428659 312.517436,50.3431924 312.50185,50.3431924 C312.472668,50.3431924 312.447245,50.343519 312.424364,50.343519 C312.402145,50.343519 312.376501,50.3438456 312.34765,50.3438456 C312.287186,50.3440633 312.234239,50.3447164 312.180628,50.3450429 C312.129228,50.3453695 312.081255,50.3453695 312.036818,50.3456961 C311.978233,50.3459138 311.908042,50.3459138 311.825581,50.3462403 C311.745109,50.3468934 311.659222,50.3475466 311.569355,50.3477643 C311.37724,50.3709499 311.18391,50.407089 310.983063,50.4555285 C310.784427,50.5036415 310.595739,50.5622043 310.419321,50.634156 C310.225769,50.7283136 310.075327,50.8519704 309.964458,51.0031669 C309.855357,51.1540369 309.770796,51.335168 309.711216,51.5468866 C309.610959,51.9683647 309.605321,52.3182175 309.694304,52.5965541 C309.785498,52.8770678 309.949425,53.0874802 310.186528,53.226703 C310.424405,53.3874785 310.687595,53.504713 310.97643,53.5725283 C311.265044,53.6423029 311.573113,53.674741 311.898978,53.6731083 L316.092667,53.6187907 C316.907551,53.6367514 317.658323,53.74506 318.347967,53.940995 C319.035512,54.1338821 319.664029,54.4282201 320.227108,54.8243354 C320.776038,55.1953057 321.201276,55.7170372 321.499507,56.3936661 C321.79818,57.0682269 321.965423,57.885276 321.999579,58.8424186 C321.999579,58.8659308 321.999579,58.8829118 321.999911,58.8948856 C321.999911,58.9066417 321.999911,58.913064 321.999911,58.913064 C321.999911,58.913064 321.999911,58.913064 321.999911,58.913064 C321.999911,58.913064 321.999911,58.913064 321.999911,58.913064 C321.999911,58.93527 321.999911,58.9470261 321.999911,58.9470261 C321.999911,58.9470261 321.999911,58.9470261 321.999911,58.9470261 C322.003338,59.6962599 321.907833,60.4130555 321.712292,61.1035088 C321.516419,61.7928735 321.212551,62.4433778 320.800135,63.0508853 C320.389377,63.6612229 319.885878,64.1197109 319.287648,64.4236279 C318.690192,64.7307016 318.006516,64.8864699 317.237285,64.8901709 L305.296673,64.9481895 L305.277218,61.0961068 Z" id="Fill-2" fill="#29317C"></path>
                <path d="M14.7851792,31.9993901 C13.6647921,32.0048082 12.591879,31.974069 11.5704146,31.9094946 C10.5482877,31.8445884 9.54868334,31.7417559 8.58010274,31.6057515 C7.61152214,31.4706317 6.68831788,31.1750711 5.8139125,30.727473 C4.93950713,30.2796538 4.10893243,29.6643171 3.30143231,28.9139712 C2.59671899,28.2582754 2.01334046,27.5897533 1.57889789,26.8841892 C1.14456572,26.1786252 0.84879148,25.427063 0.663532361,24.6384589 C0.4772796,23.845432 0.320504899,23.0462129 0.231960315,22.2412441 C0.142422088,21.4360542 0.0939544159,20.6073122 0.0905318696,19.7578932 L0.0263867278,6.79778472 L0,1.58505879 L6.31393548,1.55365616 C6.65475484,1.75932126 6.99557421,1.96553924 7.33672479,2.17109377 L7.4165474,18.2778784 C7.42372371,19.6912179 7.48477752,20.9474337 7.66098345,22.0350261 C7.83718938,23.1232821 8.13848386,24.0297566 8.51441193,24.7694875 C8.89685388,25.5232612 9.64230654,26.0959169 10.7840017,26.4566048 C11.9253657,26.8174034 13.4684925,27.0010645 15.4060953,26.9860266 L29.6246774,26.8732425 L29.6497393,31.9257487 L29.398679,31.9272967 L14.7851792,31.9993901 Z M41.5700264,31.8668135 L33.9137904,31.9047399 L33.7629775,1.41798353 L41.4191032,1.38005711 L41.5700264,31.8668135 Z M67.9304779,31.7364484 L48.8056205,31.8310986 L48.6550285,1.34456329 L66.519616,1.25555232 C66.6732994,1.25533117 66.8166047,1.29701706 66.9562667,1.29635362 C67.0964807,1.29535847 67.2419941,1.29447389 67.3931382,1.29381045 C67.4569521,1.29381045 67.5273903,1.29347874 67.603128,1.29292587 C67.6775407,1.29259415 67.758909,1.29193072 67.8450247,1.291599 C67.9098323,1.31957388 67.9789456,1.3336166 68.0550145,1.33328489 C68.1304209,1.3324003 68.2024048,1.33140515 68.2650042,1.33206859 C69.4708446,1.35119765 70.6306462,1.46995267 71.7391095,1.67561778 C72.8482353,1.88150403 73.9264478,2.1451092 74.9579591,2.48832668 C76.01663,2.84005824 76.8854047,3.41923773 77.5667122,4.19435193 C78.2493446,4.96946613 78.7960688,5.94305822 79.1162425,7.13779559 C79.4081525,8.23135899 79.4763826,9.25194445 79.4060548,10.1724617 C79.3352854,11.0927578 79.0852187,11.9236006 78.6589461,12.6602355 C78.2330047,13.3970916 77.6524967,14.0885023 76.9239359,14.7282756 C76.1963689,15.3673854 75.3044091,15.9607182 74.2515897,16.5035193 C75.4170219,16.9789816 76.3903499,17.5278642 77.1673784,18.1453018 C77.944186,18.7627395 78.5313183,19.4551453 78.9228134,20.2167697 C79.3136461,20.9787257 79.5399758,21.8359954 79.5974966,22.7829395 C79.6551279,23.7294413 79.5643752,24.7741316 79.3049241,25.9049579 C79.0389592,27.0678504 78.5557177,28.0329284 77.8815865,28.7993074 C77.2087801,29.5662392 76.3684898,30.1648795 75.3547537,30.5532106 C74.3498499,30.9368976 73.2898542,31.2158724 72.1933145,31.4183309 C71.0973269,31.6207894 69.9653473,31.7261651 68.8026752,31.7320255 C68.7378677,31.7323572 68.6784699,31.7326889 68.6245924,31.7326889 C68.5708253,31.7333523 68.5232409,31.7333523 68.4794102,31.7336841 C68.4581021,31.7336841 68.4308321,31.7339052 68.398594,31.7339052 C68.366135,31.7342369 68.3395274,31.7342369 68.3178881,31.7342369 C68.2969112,31.7345686 68.2750511,31.7345686 68.2534117,31.7349004 C68.2318828,31.7349004 68.2109059,31.7349004 68.1889354,31.7352321 C68.1457671,31.7352321 68.1029301,31.7355638 68.0594307,31.7361167 C68.0164832,31.7361167 67.9736462,31.7361167 67.9304779,31.7364484 Z M66.9027204,26.3482437 C67.5915355,26.3742282 68.2271354,26.3275666 68.8079746,26.2121287 C69.3884827,26.0962486 69.8936947,25.9090491 70.3233898,25.65241 C70.7524226,25.3956604 71.0854032,25.0257949 71.31913,24.543477 C71.5529672,24.061712 71.669665,23.4805423 71.6662424,22.8010734 C71.6628199,22.1214939 71.539829,21.5407664 71.3019068,21.0612129 C71.0640951,20.5832074 70.725815,20.2140053 70.2949054,19.9625632 C69.8633334,19.7112316 69.3562445,19.5212678 68.7741908,19.3968735 C68.1921371,19.2727005 67.5536666,19.2147604 66.8670597,19.2154238 L56.0449683,19.2263705 L56.0802978,26.4020925 L66.9027204,26.3482437 Z M55.9835833,6.78484772 L56.018692,13.8340746 L66.7434064,13.7807786 C67.4332151,13.777572 68.0635156,13.7594381 68.6327624,13.6444426 C69.2023403,13.5293364 69.7168263,13.3453436 70.164407,13.0842816 C70.5953166,12.8332817 70.9270828,12.4639691 71.1604784,11.9970208 C71.3943156,11.529962 71.5106822,10.954542 71.5069284,10.2752942 C71.5038371,9.62424253 71.393322,9.06419211 71.1761559,8.59967645 C70.9595418,8.13482908 70.6109941,7.77347769 70.1371371,7.52203551 C69.662728,7.27103562 69.1431634,7.07985552 68.5836323,6.95634589 C68.024322,6.83283625 67.3962295,6.77423275 66.7089601,6.77456447 L55.9835833,6.78484772 Z M85.2244939,1.16311359 L103.250272,1.0737709 C103.336719,1.07343918 103.424933,1.08106869 103.509171,1.09389512 C103.593962,1.10605811 103.681513,1.1145722 103.767629,1.11357705 C103.832436,1.11324533 103.908174,1.11302419 103.993848,1.11269247 C104.079964,1.11236075 104.166632,1.11202903 104.252416,1.11169732 C104.316561,1.1113656 104.37629,1.11081273 104.43083,1.11048102 C104.483935,1.1101493 104.543443,1.10981758 104.606926,1.10948586 C104.629559,1.10948586 104.656166,1.10948586 104.688625,1.10926472 C104.720532,1.10926472 104.75001,1.10417838 104.76911,1.108933 C104.856109,1.13027352 104.947193,1.15028717 105.043907,1.14995545 C105.140843,1.14962373 105.234797,1.14619598 105.318926,1.14873915 C105.986543,1.16842108 106.643451,1.23399066 107.28965,1.32952542 C107.935959,1.42550247 108.576527,1.53076762 109.197775,1.6815887 C109.825536,1.83329436 110.428898,2.07246298 111.009737,2.35165889 C111.592563,2.63063366 112.119194,2.98988417 112.599344,3.40541615 C113.025506,3.77528163 113.41115,4.17367484 113.735298,4.60966276 C114.059226,5.04653526 114.329386,5.50861832 114.549312,5.9859604 C114.783481,6.4943734 114.980553,7.00400269 115.122423,7.51142054 C115.264183,8.0191701 115.368957,8.52979454 115.404618,9.0387604 C115.411904,9.15010705 115.405611,9.25824709 115.406274,9.35698846 C115.406826,9.45661441 115.407157,9.5483897 115.407157,9.63342006 C115.407488,9.68948039 115.407819,9.74620415 115.407819,9.80359135 C115.408371,9.8599834 115.419412,9.90233272 115.441603,9.93052874 C115.441603,9.9872525 115.441934,10.0364573 115.441934,10.0791384 C115.441934,10.1220406 115.441934,10.1712454 115.442486,10.2273057 C115.447565,11.2752026 115.317067,12.2678132 115.053862,13.202152 C114.790326,14.1364908 114.366924,14.990001 113.790059,15.7560482 C113.213967,16.5220955 112.482867,17.165186 111.603162,17.6776901 C110.724341,18.1900838 109.67936,18.5787466 108.475176,18.838924 L117.195051,31.4926357 L108.957092,31.5329947 L101.242342,19.5971206 L92.6169731,19.6398016 L92.6760396,31.6139339 L85.3747548,31.6496489 L85.2244939,1.16311359 Z M101.532817,6.51726194 L92.5527176,6.56138042 L92.5900344,14.2473952 L101.570685,14.2032767 C101.592546,14.231141 101.620147,14.2449626 101.651391,14.2449626 C101.683961,14.2446308 101.721829,14.2446308 101.764667,14.2446308 C101.786637,14.2446308 101.814128,14.2442991 101.845483,14.2442991 C101.877721,14.2439674 101.91559,14.2439674 101.959089,14.2436357 C102.734572,14.2396551 103.47318,14.1853639 104.170385,14.0841899 C104.869247,13.9825737 105.537085,13.8409301 106.155462,13.6280778 C106.782671,13.4127929 107.251781,13.0125199 107.570961,12.4750263 C107.890252,11.9365376 108.049566,11.2262189 108.045149,10.3489356 C108.041064,9.44345626 107.868943,8.72064292 107.533755,8.18657707 C107.198566,7.65096321 106.686288,7.27258364 105.99405,7.08991764 C105.328972,6.91366485 104.618297,6.79115036 103.875274,6.69716362 C103.133243,6.6030663 102.351136,6.5554095 101.533148,6.5598324 L101.532817,6.51726194 Z M131.549872,0.933675367 L139.302823,0.895417233 L154.280327,31.3086428 L146.140629,31.3493336 L142.906543,24.1042825 L127.787832,24.1792508 L124.722334,31.4552622 L117.03397,31.4931886 L131.549872,0.933675367 Z M135.165185,6.98763794 L130.119358,18.7317791 L140.488901,18.6810263 L135.165185,6.98763794 Z M195.607684,5.83989395 C193.841981,5.87682521 192.389938,6.15303566 191.250672,6.66764073 C190.111516,7.18290922 189.28602,7.93734634 188.773963,8.93039922 C188.240377,9.95186926 187.842589,11.0438846 187.578832,12.2057819 C187.315848,13.3679004 187.165366,14.6141646 187.129043,15.9446852 C187.129706,16.1710274 187.130589,16.4051096 187.132466,16.6454946 C187.133128,16.88599 187.134674,17.1197406 187.135999,17.3460828 C187.136882,17.5723144 187.138096,17.8058438 187.138759,18.0468922 C187.140636,18.2876088 187.152228,18.5201431 187.175082,18.7471487 C187.220458,19.256778 187.298073,19.7513694 187.408588,20.232471 C187.51833,20.7126879 187.661084,21.1937895 187.835744,21.6740065 C187.988434,22.1255851 188.195332,22.5634528 188.455998,22.986946 C188.716442,23.4104392 189.040922,23.8052941 189.430871,24.1710684 C189.820158,24.5371744 190.236384,24.8465566 190.679549,25.0994363 C191.122382,25.3514313 191.602201,25.51917 192.119226,25.6016572 C192.614943,25.6840338 193.126559,25.7455122 193.654514,25.7849866 C194.18247,25.8247928 194.715835,25.8432584 195.254058,25.8404941 C195.275366,25.8404941 195.286627,25.8404941 195.286627,25.8404941 C195.286627,25.8404941 195.297226,25.8404941 195.318865,25.8404941 C195.340505,25.8404941 195.361702,25.8401624 195.383673,25.8401624 C195.404981,25.8401624 195.42651,25.8398307 195.447487,25.8398307 C195.469126,25.8398307 195.490986,25.8394989 195.512626,25.8394989 C195.533823,25.8394989 195.555794,25.8391672 195.577323,25.8391672 C195.5983,25.8391672 195.619939,25.8388355 195.641578,25.8388355 C195.663107,25.8388355 195.684747,25.8386144 195.705944,25.8386144 L207.723608,25.7366664 L207.749553,31.0440425 L195.376717,31.1055209 C194.386608,31.1104967 193.417365,31.0797575 192.469099,31.0139667 C191.520833,30.9471809 190.583496,30.8321853 189.65687,30.6669898 C188.729801,30.5297692 187.845128,30.2786587 187.003844,29.9154276 C186.162008,29.5518647 185.33044,29.0892288 184.509029,28.5265247 C183.536915,27.8520316 182.709432,27.0919552 182.02691,26.2460745 C181.344057,25.3997516 180.806386,24.4829938 180.414228,23.4934793 C180.021739,22.5048493 179.720666,21.4946577 179.511007,20.4622409 C179.301017,19.4300453 179.172727,18.3904414 179.12448,17.3432079 C179.123266,17.2297604 179.117304,17.117308 179.105711,17.0037499 C179.09445,16.8903024 179.088488,16.7768549 179.088268,16.6646236 C179.087605,16.5790404 179.086943,16.4800779 179.086391,16.3668515 C179.086059,16.253404 179.085728,16.1409516 179.084735,16.0273935 C179.08352,15.8004984 179.093898,15.5807906 179.114544,15.3689334 C179.134527,15.1567445 179.155504,14.9514111 179.17615,14.7530438 C179.336457,12.345214 179.783596,10.2561652 180.517457,8.48335404 C181.251979,6.71032176 182.273223,5.25441182 183.581408,4.11573478 C184.889484,2.97694717 186.533189,2.11945635 188.511973,1.54304118 C190.490204,0.967510594 192.793247,0.673276801 195.420548,0.660118657 L207.599403,0.557286102 L207.625017,5.78029529 L195.607684,5.83989395 Z M226.90698,30.9493923 C225.786593,30.9546998 224.715005,30.9246241 223.691664,30.8588333 C222.668874,30.7930426 221.672141,30.6920898 220.702235,30.5560854 C219.732109,30.4187542 218.809567,30.1260685 217.935714,29.6771435 C217.060756,29.2289926 216.223226,28.6243814 215.423013,27.86331 C214.708473,27.21646 214.135142,26.5397555 213.700809,25.8341915 C213.266036,25.1286274 212.961539,24.380493 212.785333,23.5884612 C212.586936,22.7969822 212.4433,21.9974314 212.353761,21.1912463 C212.263009,20.3853929 212.216087,19.5573144 212.21145,18.7082271 L212.122243,0.535061002 L219.455103,0.498682603 L219.538128,17.2282124 C219.523333,18.6439844 219.605364,19.896109 219.782233,20.9846966 C219.960315,22.0739477 220.244387,22.9857297 220.636213,23.7197109 C221.005848,24.4816669 221.762231,25.0440394 222.905803,25.4069388 C224.049375,25.7689536 225.589742,25.9457593 227.527896,25.9363606 L236.153044,25.8507774 L236.177775,30.9036153 L226.90698,30.9493923 Z M247.743111,30.8463386 L240.087206,30.884265 L239.936393,0.397729784 L247.592298,0.359471651 L247.743111,30.8463386 Z M270.652642,5.67967419 L262.156447,5.72202351 L262.20083,14.7238527 L271.117004,14.6796236 C272.000242,14.6749795 272.82364,14.5934875 273.587199,14.4342629 C274.3512,14.2747066 275.066292,14.051571 275.732584,13.765409 C276.355708,13.4507193 276.832325,12.9952706 277.163098,12.3991735 C277.494202,11.8029658 277.657269,11.0667732 277.653184,10.1888264 C277.669193,9.197985 277.504249,8.39909768 277.156805,7.79227504 C276.808809,7.1854524 276.268599,6.75631998 275.53507,6.50565181 C274.801541,6.25398848 274.036657,6.06026522 273.238541,5.92227056 C272.440536,5.7847182 271.5796,5.71793233 270.652642,5.72235523 L270.652642,5.67967419 Z M254.828223,0.323756688 L270.72308,0.244807824 C270.72308,0.273335564 270.73401,0.28737829 270.75587,0.287046572 C270.777179,0.287046572 270.798487,0.287046572 270.820016,0.286825426 C270.820016,0.286825426 270.825315,0.286825426 270.836687,0.286825426 C270.846623,0.286825426 270.863184,0.286825426 270.884492,0.286493709 C270.906463,0.286493709 270.922361,0.286493709 270.932739,0.286493709 C270.944,0.286493709 270.949631,0.286493709 270.949631,0.286493709 C271.14306,0.285166837 271.34234,0.284282256 271.547031,0.283065957 C271.751721,0.282402521 271.96138,0.281407367 272.177,0.27985935 C272.284976,0.27985935 272.386769,0.279306487 272.483704,0.278643051 C272.580419,0.278311333 272.683095,0.277316179 272.79074,0.277095034 C272.984169,0.276431598 273.183229,0.282402521 273.387919,0.295560665 C273.59283,0.308387091 273.803814,0.31502145 274.01844,0.31336286 C274.125864,0.313141715 274.228209,0.319333782 274.325476,0.333155362 C274.42219,0.346645224 274.525198,0.35316901 274.632511,0.352616147 C274.891631,0.379264153 275.159804,0.406465022 275.440564,0.433113028 C275.720992,0.46042447 276.000426,0.487072476 276.280854,0.514605064 C276.539974,0.54125307 276.808809,0.575420015 277.088575,0.616774182 C277.369334,0.657575486 277.638501,0.705785157 277.897289,0.760960904 C278.435623,0.871975834 278.959493,1.01052335 279.466472,1.17815147 C279.973119,1.34522673 280.464751,1.54116145 280.938277,1.76496047 C281.802746,2.21377481 282.538152,2.73379794 283.14339,3.32525098 C283.749623,3.91692518 284.23717,4.59396145 284.607136,5.35691266 C284.977323,6.11886872 285.261174,6.90271816 285.459019,7.70890327 C285.656202,8.51442495 285.768483,9.32846072 285.794208,10.1483568 C285.797961,10.9131878 285.726198,11.6635337 285.578808,12.4000581 C285.431749,13.1369141 285.198243,13.8603909 284.878732,14.5693827 C284.581081,15.2785956 284.174902,15.9246715 283.660747,16.5076105 C283.146813,17.0899966 282.525014,17.6240624 281.795128,18.1092552 C281.172445,18.4803369 280.53276,18.7944738 279.877398,19.0521081 C279.222036,19.3106269 278.52759,19.5125325 277.79649,19.657051 C277.06539,19.774258 276.338706,19.8695716 275.617653,19.9440975 C274.896047,20.0187341 274.169364,20.0713666 273.437601,20.1039856 C273.24362,20.1048701 273.049529,20.1055336 272.856099,20.1067499 C272.66245,20.107745 272.468689,20.1084085 272.275039,20.1096248 C272.081279,20.1105094 271.886967,20.1111728 271.693207,20.1123891 C271.499115,20.1133842 271.305465,20.1142688 271.112036,20.1155957 L262.227437,20.1164803 L262.280321,30.774577 L254.979036,30.8106237 L254.828223,0.323756688 Z M320.208904,5.43464522 L302.150004,5.52420906 C301.353766,5.55649627 300.616483,5.6452861 299.938598,5.79002569 C299.260713,5.93553928 298.653597,6.15016077 298.11692,6.43599105 C297.57958,6.72193189 297.182675,7.1268489 296.927309,7.65184779 C296.671391,8.17651496 296.545198,8.82159574 296.548621,9.58631611 C296.551823,10.1799806 296.662227,10.6893888 296.880056,11.1124397 C297.097222,11.5368175 297.44312,11.8747275 297.918523,12.1261696 C298.372286,12.3790493 298.868666,12.5680179 299.406889,12.692191 C299.946437,12.8172486 300.527607,12.8783953 301.152939,12.8751887 L310.843934,12.7846297 C311.016055,12.8122729 311.199438,12.825431 311.393198,12.8244359 C311.586958,12.8235513 311.78127,12.8225561 311.975031,12.8216715 C312.082675,12.8210081 312.184689,12.8206764 312.281735,12.8197918 C312.37867,12.8194601 312.470085,12.8191284 312.556201,12.8187967 C312.664177,12.846661 312.766191,12.8604825 312.863457,12.859598 C312.960172,12.8589345 313.051918,12.8586028 313.137592,12.8582711 C313.417689,12.8852508 313.698117,12.9122305 313.978545,12.9388785 C314.258642,12.9660794 314.538076,12.9927274 314.818835,13.0200389 C315.077624,13.0752146 315.346791,13.1309432 315.627219,13.186119 C315.907316,13.2404101 316.187412,13.2959176 316.468503,13.3509828 C317.007057,13.4619977 317.519997,13.6434474 318.005116,13.8954424 C318.491117,14.1481009 318.949628,14.4429982 319.382415,14.7809081 C319.77115,15.0899587 320.111858,15.4357193 320.405204,15.815868 C320.697114,16.1960168 320.942544,16.5981695 321.138402,17.0225473 C321.334039,17.4742365 321.49799,17.9196231 321.628819,18.3574907 C321.760863,18.7956901 321.849187,19.2557829 321.894232,19.7359998 C321.894784,19.8209196 321.894784,19.8993156 321.895116,19.9700821 C321.895447,20.0402957 321.906708,20.1039856 321.928899,20.1603776 C321.929231,20.2459608 321.929231,20.3236934 321.929562,20.3945705 C321.929893,20.465337 321.930776,20.5290268 321.931107,20.5854188 C321.931439,20.6418109 321.937069,20.7055007 321.947999,20.7762672 C321.958709,20.847476 321.96467,20.9107235 321.965223,20.9674473 C321.965554,21.052146 321.971516,21.1295468 321.982777,21.200645 C321.993707,21.2715221 321.999669,21.3354331 322,21.391604 C321.965223,23.1753618 321.670773,24.6625638 321.117093,25.8545368 C320.563524,27.045957 319.749179,27.9702337 318.675383,28.6269246 C317.602028,29.2546455 316.328289,29.7282281 314.854165,30.047009 C313.380814,30.3657899 311.717788,30.5297692 309.865086,30.5388361 L290.385277,30.635366 L290.358339,25.2000574 L308.675475,25.1094984 C309.494126,25.1333821 310.247749,25.0879367 310.936564,24.9709509 C311.625158,24.854739 312.259212,24.6672078 312.83972,24.4093524 C313.419566,24.1801353 313.833363,23.7887082 314.077799,23.235845 C314.322235,22.6823184 314.388809,21.9817301 314.277411,21.1323111 C314.18732,20.4822546 314.007361,19.9522799 313.735986,19.5426083 C313.464722,19.1339318 313.081617,18.8455584 312.585238,18.6788148 C312.110829,18.5392721 311.582873,18.4283678 311.000709,18.3468758 C310.418324,18.2643886 309.793654,18.2108714 309.126479,18.1861031 L300.500116,18.1863243 C298.713105,18.2236978 297.108262,18.0826071 295.685256,17.7644897 C294.261918,17.4457087 293.020969,16.9774336 291.962519,16.359996 C290.925377,15.7140306 290.15144,14.8123108 289.640156,13.6538412 C289.12843,12.4957034 288.878363,11.067326 288.891502,9.36881973 C288.90464,7.61325794 289.188159,6.12605594 289.741839,4.90643973 C290.295077,3.68593893 291.109422,2.76232568 292.18355,2.13416251 C293.278212,1.47747161 294.562992,0.982548473 296.037005,0.649724829 C297.509804,0.316901184 299.184092,0.146398174 301.057439,0.137220645 L320.181965,0 L320.208904,5.43464522 Z" id="Fill-3" fill="#29317C"></path>
                <path d="M371.939214,21.9753567 L370.575512,23.135178 C369.81736,22.0606714 368.907299,21.247491 367.844867,20.6959803 C366.782435,20.1442407 365.621239,19.8718063 364.352364,19.8779902 C362.967358,19.8845177 361.688411,20.2529167 360.5117,20.988226 C359.3358,21.7227337 358.425971,22.7086047 357.784065,23.9402278 C357.141349,25.1759735 356.822712,26.5604758 356.830238,28.094651 C356.841701,30.4185308 357.576233,32.3503067 359.037772,33.8990255 C360.495722,35.442591 362.331937,36.2115681 364.542829,36.2008036 C366.97151,36.1888939 369.000505,35.1361453 370.625067,33.0380917 L372,34.1710017 C371.141,35.3821264 370.065484,36.3242522 368.776347,36.9890195 C367.486169,37.6580238 366.042692,37.9917244 364.443023,37.9998551 C361.407056,38.0145132 359.008942,36.9173322 357.241155,34.7072817 C355.761901,32.8453608 355.01359,30.5866408 355.000159,27.9355879 C354.986381,25.1467718 355.865296,22.8007904 357.639335,20.8872226 C359.410596,18.9742274 361.636887,18.0130919 364.319597,18.0001515 C365.942886,17.9916773 367.406046,18.3386618 368.714635,19.0343485 C370.022876,19.7306077 371.099318,20.7113255 371.939214,21.9753567 Z" id="Fill-4" fill="#FFFFFE"></path>
                <path d="M371.939214,21.9753567 L370.575512,23.135178 C369.81736,22.0606714 368.907299,21.247491 367.844867,20.6959803 C366.782435,20.1442407 365.621239,19.8718063 364.352364,19.8779902 C362.967358,19.8845177 361.688411,20.2529167 360.5117,20.988226 C359.3358,21.7227337 358.425971,22.7086047 357.784065,23.9402278 C357.141349,25.1759735 356.822712,26.5604758 356.830238,28.094651 C356.841701,30.4185308 357.576233,32.3503067 359.037772,33.8990255 C360.495722,35.442591 362.331937,36.2115681 364.542829,36.2008036 C366.97151,36.1888939 369.000505,35.1361453 370.625067,33.0380917 L372,34.1710017 C371.141,35.3821264 370.065484,36.3242522 368.776347,36.9890195 C367.486169,37.6580238 366.042692,37.9917244 364.443023,37.9998551 C361.407056,38.0145132 359.008942,36.9173322 357.241155,34.7072817 C355.761901,32.8453608 355.01359,30.5866408 355.000159,27.9355879 C354.986381,25.1467718 355.865296,22.8007904 357.639335,20.8872226 C359.410596,18.9742274 361.636887,18.0130919 364.319597,18.0001515 C365.942886,17.9916773 367.406046,18.3386618 368.714635,19.0343485 C370.022876,19.7306077 371.099318,20.7113255 371.939214,21.9753567 Z" id="Stroke-5" stroke="#FFFFFE" stroke-width="0.5"></path>
                <path d="M361,28.0083236 L362.627027,28 L362.706875,44.9004332 C362.714912,46.3189353 362.906339,46.1282795 364.272632,46.185645 L372.99165,46.1484136 L373,47.9495773 L363.466634,47.9998564 C362.24031,48.0062679 361.090495,47.8044763 361.082562,46.073726 L361,28.0083236 Z" id="Fill-6" fill="#FFFFFE"></path>
                <path d="M361,28.0083236 L362.627027,28 L362.706875,44.9004332 C362.714912,46.3189353 362.906339,46.1282795 364.272632,46.185645 L372.99165,46.1484136 L373,47.9495773 L363.466634,47.9998564 C362.24031,48.0062679 361.090495,47.8044763 361.082562,46.073726 L361,28.0083236 Z" id="Stroke-7" stroke="#FFFFFE" stroke-width="0.5"></path>
                <path d="M401.051352,15 L401,6.01612511 L404.758013,6.00017333 C405.702371,5.99579441 406.390325,6.07440644 406.818539,6.23361145 C407.249494,6.39292072 407.592637,6.67786327 407.852377,7.08896041 C408.11176,7.50214276 408.243775,7.97204254 408.246872,8.50314293 C408.250923,9.17843489 408.060765,9.73549602 407.674729,10.1758902 C407.288336,10.6174313 406.70952,10.8958055 405.936733,11.0140363 C406.323126,11.2403847 406.640891,11.4898789 406.891457,11.7629358 C407.144525,12.0356799 407.483856,12.521323 407.911831,13.2184053 L409,14.9660112 L406.866555,14.9751861 L405.575956,13.0189559 C405.113666,12.3244801 404.79614,11.8867967 404.624568,11.7059056 C404.454665,11.5261614 404.274991,11.402092 404.085547,11.3358869 C403.893364,11.269369 403.593113,11.2374655 403.181818,11.2392379 L402.819731,11.2403847 L402.841296,14.9922848 L401.051352,15 Z M402.811629,9.81025044 L404.131896,9.8046204 C404.987609,9.80107556 405.520315,9.76124824 405.734064,9.68670235 C405.94555,9.61319905 406.113309,9.484855 406.231502,9.30406818 C406.351841,9.1236984 406.410223,8.89766274 406.408912,8.62783788 C406.406887,8.32433705 406.325152,8.08224535 406.165376,7.89489014 C406.006315,7.70962014 405.781365,7.59347451 405.493268,7.54614047 C405.347075,7.52633108 404.913023,7.51809454 404.190992,7.52101382 L402.798761,7.52695664 L402.811629,9.81025044 Z" id="Fill-8" fill="#29317C"></path>
                <path d="M404.457412,2.00010545 C409.151424,1.97696794 412.976863,5.76446824 412.999892,10.4573063 C413.02336,15.1514665 409.236044,18.976097 404.541372,18.9998955 C399.848683,19.0229229 396.023243,15.2355328 396.000104,10.541042 C395.977076,5.84820399 399.764393,2.02357349 404.457412,2.00010545 Z" id="Stroke-9" stroke="#29317C" stroke-width="0.5"></path>
            </g>
        </g>
    </g>
</svg>